<svg xmlns="http://www.w3.org/2000/svg" viewBox="0 0 107.13 107"><defs><style>.cls-1{fill:none;}</style></defs><title>buildings1</title><g id="buildings"><circle class="cls-1" cx="53.57" cy="53.5" r="47.75"/><rect x="70.59" y="18.91" width="3.95" height="4.06"/><rect x="62.93" y="18.91" width="3.95" height="4.06"/><rect x="55.28" y="18.91" width="3.95" height="4.06"/><rect x="47.62" y="18.91" width="3.95" height="4.06"/><rect x="39.97" y="18.91" width="3.95" height="4.06"/><rect x="32.32" y="18.91" width="3.95" height="4.06"/><rect x="70.59" y="29.67" width="3.95" height="4.06"/><rect x="62.93" y="29.67" width="3.95" height="4.06"/><rect x="55.28" y="29.67" width="3.95" height="4.06"/><rect x="47.62" y="29.67" width="3.95" height="4.06"/><rect x="39.97" y="29.67" width="3.95" height="4.06"/><rect x="32.32" y="29.67" width="3.95" height="4.06"/><rect x="70.59" y="40.43" width="3.95" height="4.06"/><rect x="62.93" y="40.43" width="3.95" height="4.06"/><rect x="55.28" y="40.43" width="3.95" height="4.06"/><rect x="47.62" y="40.43" width="3.95" height="4.06"/><rect x="39.97" y="40.43" width="3.95" height="4.06"/><rect x="32.32" y="40.43" width="3.95" height="4.06"/><rect x="70.59" y="51.19" width="3.95" height="4.06"/><rect x="62.93" y="51.19" width="3.95" height="4.06"/><rect x="55.28" y="51.19" width="3.95" height="4.06"/><rect x="47.62" y="51.19" width="3.95" height="4.06"/><rect x="39.97" y="51.19" width="3.95" height="4.06"/><rect x="32.32" y="51.19" width="3.95" height="4.06"/><rect x="70.59" y="61.95" width="3.95" height="4.06"/><rect x="62.93" y="61.95" width="3.95" height="4.06"/><rect x="55.28" y="61.95" width="3.95" height="4.06"/><rect x="47.62" y="61.95" width="3.95" height="4.06"/><rect x="39.97" y="61.95" width="3.95" height="4.06"/><rect x="32.32" y="61.95" width="3.95" height="4.06"/><rect x="70.59" y="72.71" width="3.95" height="4.06"/><rect x="62.93" y="72.71" width="3.95" height="4.06"/><rect x="55.28" y="72.71" width="3.95" height="4.06"/><rect x="47.62" y="72.71" width="3.95" height="4.06"/><rect x="39.97" y="72.71" width="3.95" height="4.06"/><rect x="32.32" y="72.71" width="3.95" height="4.06"/><rect x="70.59" y="83.46" width="3.95" height="4.06"/><rect x="62.93" y="83.46" width="3.95" height="4.06"/><rect x="55.28" y="83.46" width="3.95" height="4.06"/><rect x="47.62" y="83.46" width="3.95" height="4.06"/><rect x="39.97" y="83.46" width="3.95" height="4.06"/><rect x="32.32" y="83.46" width="3.95" height="4.06"/></g></svg>