<svg xmlns="http://www.w3.org/2000/svg" viewBox="0 0 107.13 107"><defs><style>.cls-1,.cls-7{fill:none;}.cls-1{stroke:#b6c7b6;stroke-width:3px;}.cls-1,.cls-4,.cls-6,.cls-7{stroke-miterlimit:10;}.cls-2{fill:#b6c7b6;}.cls-3{fill:#606060;}.cls-4,.cls-6,.cls-8{fill:#fff;}.cls-4,.cls-6,.cls-7,.cls-8{stroke:#000;}.cls-4,.cls-8{stroke-width:1.3px;}.cls-5{fill:#87a385;}.cls-6,.cls-7{stroke-width:1.5px;}.cls-7{stroke-linecap:round;}.cls-8{stroke-linejoin:round;}</style></defs><title>buildings</title><g id="buildings"><line class="cls-1" x1="56.39" y1="54" x2="56.39" y2="92.34"/><path class="cls-2" d="M75.8,53.65a16.24,16.24,0,0,0,2.35-8.39,16.45,16.45,0,0,0-11.39-15.6,9.84,9.84,0,1,0-19.21-3A9.92,9.92,0,0,0,48.14,30,16.45,16.45,0,0,0,37.72,45.26a16.24,16.24,0,0,0,2.35,8.39A16.38,16.38,0,0,0,47.55,84.6H68.32A16.38,16.38,0,0,0,75.8,53.65Z"/><line class="cls-3" x1="57.94" y1="66.57" x2="65.04" y2="60.56"/><line class="cls-3" x1="57.39" y1="76.04" x2="47.55" y2="67.11"/><rect class="cls-4" x="18.09" y="21.13" width="29.04" height="56.77"/><rect x="42.07" y="23.96" width="2.2" height="2.27"/><rect x="37.8" y="23.96" width="2.2" height="2.27"/><rect x="33.54" y="23.96" width="2.2" height="2.27"/><rect x="29.27" y="23.96" width="2.2" height="2.27"/><rect x="25" y="23.96" width="2.2" height="2.27"/><rect x="20.73" y="23.96" width="2.2" height="2.27"/><rect x="42.07" y="29.96" width="2.2" height="2.27"/><rect x="37.8" y="29.96" width="2.2" height="2.27"/><rect x="33.54" y="29.96" width="2.2" height="2.27"/><rect x="29.27" y="29.96" width="2.2" height="2.27"/><rect x="25" y="29.96" width="2.2" height="2.27"/><rect x="20.73" y="29.96" width="2.2" height="2.27"/><rect x="42.07" y="35.96" width="2.2" height="2.27"/><rect x="37.8" y="35.96" width="2.2" height="2.27"/><rect x="33.54" y="35.96" width="2.2" height="2.27"/><rect x="29.27" y="35.96" width="2.2" height="2.27"/><rect x="25" y="35.96" width="2.2" height="2.27"/><rect x="20.73" y="35.96" width="2.2" height="2.27"/><rect x="42.07" y="41.96" width="2.2" height="2.27"/><rect x="37.8" y="41.96" width="2.2" height="2.27"/><rect x="33.54" y="41.96" width="2.2" height="2.27"/><rect x="29.27" y="41.96" width="2.2" height="2.27"/><rect x="25" y="41.96" width="2.2" height="2.27"/><rect x="20.73" y="41.96" width="2.2" height="2.27"/><rect x="42.07" y="47.96" width="2.2" height="2.27"/><rect x="37.8" y="47.96" width="2.2" height="2.27"/><rect x="33.54" y="47.96" width="2.2" height="2.27"/><rect x="29.27" y="47.96" width="2.2" height="2.27"/><rect x="25" y="47.96" width="2.2" height="2.27"/><rect x="20.73" y="47.96" width="2.2" height="2.27"/><path class="cls-5" d="M20.21,65V76.2H35.8a35.57,35.57,0,0,1-9.57-3.83C21.16,68.32,20.21,65,20.21,65Z"/><rect x="42.07" y="53.96" width="2.2" height="2.27"/><rect x="37.8" y="53.96" width="2.2" height="2.27"/><rect x="33.54" y="53.96" width="2.2" height="2.27"/><rect x="29.27" y="53.96" width="2.2" height="2.27"/><rect x="25" y="53.96" width="2.2" height="2.27"/><rect x="20.73" y="53.96" width="2.2" height="2.27"/><rect x="42.07" y="59.96" width="2.2" height="2.27"/><rect x="37.8" y="59.96" width="2.2" height="2.27"/><rect x="33.54" y="59.96" width="2.2" height="2.27"/><rect x="29.27" y="59.96" width="2.2" height="2.27"/><rect x="25" y="59.96" width="2.2" height="2.27"/><rect x="20.73" y="59.96" width="2.2" height="2.27"/><path class="cls-6" d="M72.26,53.54a15.74,15.74,0,0,0,2.29-8.17A16,16,0,0,0,63.46,30.18a9.58,9.58,0,1,0-18.71-2.9,9.4,9.4,0,0,0,.58,3.24A16,16,0,0,0,35.18,45.37a15.83,15.83,0,0,0,2.28,8.17,15.95,15.95,0,0,0,7.29,30.14H65a15.95,15.95,0,0,0,7.29-30.14Z"/><line class="cls-7" x1="54.32" y1="52.56" x2="54.32" y2="91.91"/><line class="cls-7" x1="54.86" y1="65.13" x2="61.97" y2="59.12"/><line class="cls-7" x1="54.32" y1="74.6" x2="44.48" y2="65.68"/><rect class="cls-8" x="66.09" y="64" width="18.04" height="21.9"/><path class="cls-5" d="M68.13,78.08v6.27h8.75a19.92,19.92,0,0,1-5.37-2.15C68.67,79.93,68.13,78.08,68.13,78.08Z"/><rect x="68.13" y="66.06" width="2.01" height="2.01"/><rect x="72.51" y="66.06" width="2.01" height="2.01"/><rect x="76.57" y="66.06" width="2.01" height="2.01"/><rect x="80.45" y="66.06" width="2.01" height="2.01"/><rect x="67.95" y="70.33" width="2.01" height="2.01"/><rect x="72.32" y="70.33" width="2.01" height="2.01"/><rect x="76.39" y="70.33" width="2.01" height="2.01"/><rect x="80.26" y="70.33" width="2.01" height="2.01"/><rect x="67.95" y="74.6" width="2.01" height="2.01"/><rect x="72.32" y="74.6" width="2.01" height="2.01"/><rect x="76.39" y="74.6" width="2.01" height="2.01"/><rect x="80.26" y="74.6" width="2.01" height="2.01"/></g></svg>