<svg xmlns="http://www.w3.org/2000/svg" xmlns:xlink="http://www.w3.org/1999/xlink" viewBox="0 0 984 756"><defs><style>.cls-1,.cls-3,.cls-9{fill:none;}.cls-2{fill:#e6e6e6;}.cls-3{stroke:#92cfe1;stroke-dasharray:5 7;}.cls-29,.cls-3,.cls-33,.cls-34,.cls-36,.cls-9{stroke-miterlimit:10;}.cls-4{fill:#f2f2f2;}.cls-5{fill:url(#New_Pattern_2);}.cls-6{fill:#92cfe1;}.cls-34,.cls-7{fill:#ede8d9;}.cls-28,.cls-8{fill:#ddaf3c;}.cls-8,.cls-9{opacity:0.79;}.cls-9{stroke:#ddaf3c;}.cls-10{fill:#fff;}.cls-11{font-size:32px;font-family:Lato-Thin, Lato;}.cls-12{letter-spacing:-0.01em;}.cls-13{letter-spacing:-0.01em;}.cls-14{letter-spacing:-0.02em;}.cls-15{letter-spacing:-0.01em;}.cls-16{letter-spacing:-0.01em;}.cls-17{letter-spacing:-0.01em;}.cls-18{letter-spacing:0em;}.cls-19{fill:#456168;}.cls-20{letter-spacing:-0.03em;}.cls-21{letter-spacing:-0.01em;}.cls-22{letter-spacing:-0.01em;}.cls-23{letter-spacing:-0.01em;}.cls-24{letter-spacing:-0.02em;}.cls-25{letter-spacing:-0.01em;}.cls-26{letter-spacing:-0.02em;}.cls-27{fill:#ccc;}.cls-29,.cls-33,.cls-35,.cls-36{fill:#d3cec2;}.cls-29,.cls-36{stroke:#fff;}.cls-29{stroke-width:3px;}.cls-30{fill:#e18323;}.cls-31{fill:#11a0b0;}.cls-32{fill:gray;}.cls-33,.cls-34{stroke:gray;}.cls-33,.cls-34,.cls-36{stroke-width:2px;}.cls-37{fill:#999;}</style><pattern id="New_Pattern_2" data-name="New Pattern 2" width="6" height="6" patternTransform="matrix(0.91, -0.42, 0.42, 0.91, -191.24, -174.76)" patternUnits="userSpaceOnUse" viewBox="0 0 6 6"><rect class="cls-1" width="6" height="6"/><rect class="cls-2" width="3" height="6"/></pattern></defs><title>Impervious Surface</title><g id="Layer_3" data-name="Layer 3"><line class="cls-3" x1="587.99" y1="93.1" x2="587.99" y2="364.43"/><line class="cls-3" x1="653.8" y1="92.26" x2="653.8" y2="376.93"/><line class="cls-3" x1="602.71" y1="91.56" x2="602.71" y2="364.43"/><line class="cls-3" x1="618.2" y1="92.44" x2="618.2" y2="378.42"/><line class="cls-3" x1="635.46" y1="92.44" x2="635.46" y2="365.43"/><path class="cls-2" d="M586.63,71.44c.45-6.93,8-12.43,17.17-12.43a21.89,21.89,0,0,1,6.68,1c4.85-5.12,12.7-8.45,21.55-8.45,11.13,0,20.67,5.26,24.68,12.72a15.24,15.24,0,0,1,2.36-.19,14.49,14.49,0,1,1,0,29,14.75,14.75,0,0,1-2.92-.29h-63a16.87,16.87,0,0,1-3.13.29c-7.65,0-13.85-4.92-13.85-11C576.13,76.94,580.6,72.63,586.63,71.44Z"/><path class="cls-2" d="M440.44,60.65c-.45-6.93-8-12.43-17.16-12.43a22,22,0,0,0-6.69,1c-4.85-5.12-12.7-8.45-21.55-8.45-11.13,0-20.67,5.26-24.68,12.72a15.11,15.11,0,0,0-2.35-.19,14.49,14.49,0,1,0,0,29,14.73,14.73,0,0,0,2.91-.29h63a16.87,16.87,0,0,0,3.13.29c7.65,0,13.85-4.92,13.85-11C450.94,66.15,446.47,61.84,440.44,60.65Z"/><path class="cls-4" d="M441.19,65a25.68,25.68,0,0,0-4,.31c-2.51-5.17-10.84-9-20.73-9-11,0-20.05,4.68-21.35,10.73-5.9.23-10.57,3.48-10.57,7.44,0,4.13,5,7.47,11.27,7.47H396V82h42.74c.8.07,1.62.11,2.45.11,8.35,0,15.11-3.84,15.11-8.58S449.54,65,441.19,65Z"/><line class="cls-3" x1="371.78" y1="82.67" x2="371.78" y2="287"/><line class="cls-3" x1="435.6" y1="81.83" x2="435.6" y2="366.5"/><line class="cls-3" x1="386.5" y1="81.13" x2="386.5" y2="354"/><line class="cls-3" x1="402" y1="82.01" x2="402" y2="367.99"/><line class="cls-3" x1="419.25" y1="82.01" x2="419.25" y2="355"/><line class="cls-3" x1="47.56" y1="84.43" x2="50.49" y2="373.25"/><line class="cls-3" x1="30.71" y1="82.43" x2="33.64" y2="371.25"/><line class="cls-3" x1="62.55" y1="84.27" x2="65.38" y2="364"/><line class="cls-3" x1="77.56" y1="84.12" x2="80.46" y2="370.08"/><line class="cls-3" x1="93.73" y1="82.85" x2="96.67" y2="373.25"/><line class="cls-3" x1="111.97" y1="84.21" x2="113" y2="368"/><line class="cls-3" x1="130.21" y1="84.02" x2="131.99" y2="259.55"/><line class="cls-3" x1="149.68" y1="84.02" x2="145.52" y2="381.99"/><line class="cls-3" x1="810.59" y1="110.71" x2="812.5" y2="298.67"/><line class="cls-3" x1="825.58" y1="110.56" x2="828" y2="349.27"/><line class="cls-3" x1="840.59" y1="110.41" x2="843.49" y2="396.37"/><line class="cls-3" x1="856.76" y1="109.13" x2="859.24" y2="353.2"/><line class="cls-3" x1="875.01" y1="110.49" x2="877.17" y2="324.02"/><line class="cls-3" x1="893.24" y1="110.31" x2="895.7" y2="352.5"/><line class="cls-3" x1="910.84" y1="110.31" x2="913.51" y2="373.25"/><line class="cls-3" x1="931.45" y1="109.06" x2="934.04" y2="364"/><polygon class="cls-4" points="958.84 199.03 932.34 233.66 948.34 233.66 948.34 371.34 970.34 371.34 970.34 233.66 985.34 233.66 958.84 199.03"/><polygon class="cls-4" points="772.64 199.03 746.14 233.66 762.14 233.66 762.14 371.34 784.14 371.34 784.14 233.66 799.14 233.66 772.64 199.03"/><polygon class="cls-4" points="586.44 199.03 559.94 233.66 575.94 233.66 575.94 371.34 597.94 371.34 597.94 233.66 612.94 233.66 586.44 199.03"/><polygon class="cls-4" points="400.24 199.03 373.74 233.66 389.74 233.66 389.74 371.34 411.74 371.34 411.74 233.66 426.74 233.66 400.24 199.03"/><polygon class="cls-4" points="214.04 199.03 187.54 233.66 203.54 233.66 203.54 371.34 225.54 371.34 225.54 233.66 240.54 233.66 214.04 199.03"/><polygon class="cls-4" points="27.84 199.03 1.34 233.66 17.34 233.66 17.34 371.34 39.34 371.34 39.34 233.66 54.34 233.66 27.84 199.03"/><rect class="cls-4" x="848" y="181" width="22.34" height="190.34"/><polygon class="cls-4" points="858.84 146.03 832.34 180.66 885.34 180.66 858.84 146.03"/><rect class="cls-4" x="653" y="180" width="22.34" height="190.34"/><polygon class="cls-4" points="663.84 145.03 637.34 179.66 690.34 179.66 663.84 145.03"/><rect class="cls-4" x="488" y="181" width="22.34" height="190.34"/><polygon class="cls-4" points="498.84 146.03 472.34 180.66 525.34 180.66 498.84 146.03"/><rect class="cls-5" x="291" y="191" width="22.34" height="190.34"/><polygon class="cls-5" points="301.84 156.03 275.34 190.66 328.34 190.66 301.84 156.03"/><rect class="cls-4" x="104" y="180" width="22.34" height="190.34"/><polygon class="cls-4" points="114.84 145.03 88.34 179.66 141.34 179.66 114.84 145.03"/><path class="cls-6" d="M986,378l-1,68H-1V378l-.5-25.5c15.37,0,17.37,8,32.75,8s15.37-8,30.75-8,15.37,8,30.75,8,15.37-8,30.75-8,15.37,8,30.75,8,15.37-8,30.74-8,15.37,8,30.75,8,15.37-8,30.74-8,15.37,8,30.75,8,15.37-8,30.74-8,15.38,8,30.75,8,15.38-8,30.75-8,15.37,8,30.75,8,15.37-8,30.75-8,15.37,8,30.74,8,15.38-8,30.75-8,15.38,8,30.75,8,15.38-8,30.75-8,15.38,8,30.75,8,15.38-8,30.75-8,15.38,8,30.75,8,15.38-8,30.76-8,15.37,8,30.75,8,15.37-8,30.74-8,15.38,8,30.75,8,15.38-8,30.75-8,15.38,8,30.76,8,15.37-8,30.75-8,15.38,8,30.76,8,15.37-8,30.75-8,15.38,8,30.76,8,16.38-8,31.76-8Z"/><rect class="cls-7" y="434" width="984" height="330"/><path class="cls-2" d="M940,87.93C940,79.42,933.1,72,922.85,68c-4.43-14.32-21.26-25-41.35-25-18.71,0-34.58,9.25-40.26,22.09-.9-.06-1.82-.09-2.74-.09-14.32,0-26.45,6.76-30.53,16.09a19.2,19.2,0,0,0-3-.24c-9.39,0-17,6.75-17,15.07s7.34,14.82,16.5,15.06v0H906C924.82,110.81,940,100.56,940,87.93Z"/><path class="cls-4" d="M951,97.14c0-5.11-4.14-9.57-10.3-12-2.66-8.61-12.77-15-24.84-15-11.23,0-20.77,5.55-24.18,13.27-.54,0-1.09-.06-1.64-.06-8.61,0-15.89,4.06-18.34,9.67a10.43,10.43,0,0,0-1.78-.15c-5.64,0-10.21,4-10.21,9s4.41,8.9,9.91,9h61C941.88,110.89,951,104.73,951,97.14Z"/><circle class="cls-8" cx="585" cy="71" r="21"/><line class="cls-9" x1="584" y1="43" x2="584" y2="34"/><line class="cls-9" x1="572.45" y1="45.67" x2="568.79" y2="37.45"/><line class="cls-9" x1="562.99" y1="52.8" x2="556.3" y2="46.78"/><line class="cls-9" x1="557.24" y1="63.17" x2="548.68" y2="60.39"/><line class="cls-9" x1="556.21" y1="74.98" x2="547.26" y2="75.92"/><line class="cls-9" x1="560.07" y1="86.18" x2="552.27" y2="90.68"/><line class="cls-9" x1="568.15" y1="94.85" x2="562.86" y2="102.13"/><line class="cls-9" x1="579.06" y1="99.48" x2="577.19" y2="108.28"/><line class="cls-9" x1="590.91" y1="99.27" x2="592.79" y2="108.08"/><line class="cls-9" x1="601.66" y1="94.26" x2="606.95" y2="101.54"/><line class="cls-9" x1="609.43" y1="85.32" x2="617.23" y2="89.82"/><line class="cls-9" x1="612.9" y1="73.98" x2="621.85" y2="74.92"/><line class="cls-9" x1="611.45" y1="62.22" x2="620.01" y2="59.44"/><line class="cls-9" x1="605.35" y1="52.06" x2="612.03" y2="46.04"/><line class="cls-9" x1="595.64" y1="45.26" x2="599.3" y2="37.04"/><polygon class="cls-6" points="34 454.44 34 448.44 23 448.44 23 454.44 15 454.44 28.25 471.75 41.49 454.44 34 454.44"/><polygon class="cls-6" points="221.5 454.44 221.5 448.44 210.5 448.44 210.5 454.44 202.5 454.44 215.75 471.75 229 454.44 221.5 454.44"/><polygon class="cls-6" points="407 454.44 407 448.44 396 448.44 396 454.44 388 454.44 401.25 471.75 414.5 454.44 407 454.44"/><polygon class="cls-6" points="595.5 454.44 595.5 448.44 584.5 448.44 584.5 454.44 576.5 454.44 589.75 471.75 603 454.44 595.5 454.44"/><polygon class="cls-6" points="780 454.44 780 448.44 769 448.44 769 454.44 761 454.44 774.25 471.75 787.5 454.44 780 454.44"/><polygon class="cls-6" points="967.5 454.44 967.5 448.44 956.5 448.44 956.5 454.44 948.5 454.44 961.75 471.75 975 454.44 967.5 454.44"/><rect class="cls-10" x="-2" y="638" width="986" height="118"/><text class="cls-11" transform="translate(96 737.97)">10% <tspan class="cls-12" x="70.65" y="0">S</tspan><tspan x="87.28" y="0">hall</tspan><tspan class="cls-13" x="133.66" y="0">o</tspan><tspan class="cls-14" x="151.2" y="0">w</tspan><tspan x="174.64" y="0"> </tspan><tspan class="cls-15" x="183.58" y="0">I</tspan><tspan class="cls-16" x="191.34" y="0">n</tspan><tspan x="208.62" y="0">filt</tspan><tspan class="cls-17" x="242.78" y="0">r</tspan><tspan class="cls-18" x="253.53" y="0">at</tspan><tspan x="268.65" y="0">ion</tspan></text><polygon class="cls-6" points="43.32 729.77 43.32 708.37 36.19 708.37 36.19 729.77 31 729.77 39.59 741 48.18 729.77 43.32 729.77"/><polygon class="cls-6" points="62.13 729.77 62.13 708.37 54.99 708.37 54.99 729.77 49.81 729.77 58.4 741 66.99 729.77 62.13 729.77"/><text class="cls-11" transform="translate(573 740.28)">5% <tspan class="cls-15" x="52.1" y="0">D</tspan><tspan x="76.14" y="0">eep </tspan><tspan class="cls-15" x="135.73" y="0">I</tspan><tspan class="cls-16" x="143.49" y="0">n</tspan><tspan x="160.77" y="0">filt</tspan><tspan class="cls-17" x="194.93" y="0">r</tspan><tspan class="cls-18" x="205.68" y="0">at</tspan><tspan x="220.8" y="0">ion</tspan></text><polygon class="cls-19" points="522.32 731.77 522.32 710.37 515.19 710.37 515.19 731.77 510 731.77 518.59 743 527.18 731.77 522.32 731.77"/><polygon class="cls-19" points="541.13 731.77 541.13 710.37 533.99 710.37 533.99 731.77 528.81 731.77 537.4 743 545.99 731.77 541.13 731.77"/><polygon class="cls-19" points="121 475.25 121 448.44 110 448.44 110 475.25 102 475.25 115.25 492.56 128.5 475.25 121 475.25"/><polygon class="cls-19" points="504 475.25 504 448.44 493 448.44 493 475.25 485 475.25 498.25 492.56 511.5 475.25 504 475.25"/><polygon class="cls-19" points="669.5 475.25 669.5 448.44 658.5 448.44 658.5 475.25 650.5 475.25 663.75 492.56 677 475.25 669.5 475.25"/><polygon class="cls-19" points="868.5 475.25 868.5 448.44 857.5 448.44 857.5 475.25 849.5 475.25 862.75 492.56 876 475.25 868.5 475.25"/><polygon class="cls-19" points="309 475.25 309 448.44 298 448.44 298 475.25 290 475.25 303.25 492.56 316.5 475.25 309 475.25"/><text class="cls-11" transform="translate(95.6 682.56)">30% <tspan class="cls-20" x="70.65" y="0">E</tspan><tspan class="cls-21" x="88.21" y="0">v</tspan><tspan x="103.74" y="0">ap</tspan><tspan class="cls-15" x="136.51" y="0">o</tspan><tspan x="153.97" y="0">t</tspan><tspan class="cls-17" x="164.65" y="0">r</tspan><tspan x="175.41" y="0">anspi</tspan><tspan class="cls-22" x="245.96" y="0">r</tspan><tspan class="cls-23" x="256.72" y="0">a</tspan><tspan x="271.84" y="0">tion</tspan></text><polygon class="cls-4" points="56.67 666.6 56.67 688 63.8 688 63.8 666.6 68.99 666.6 60.4 655.37 51.81 666.6 56.67 666.6"/><polygon class="cls-4" points="37.86 666.6 37.86 688 45 688 45 666.6 50.18 666.6 41.59 655.37 33 666.6 37.86 666.6"/><text class="cls-11" transform="translate(569 681.58)">55% <tspan class="cls-24" x="70.65" y="0">R</tspan><tspan x="89.09" y="0">un</tspan><tspan class="cls-25" x="124" y="0">o</tspan><tspan class="cls-26" x="141.47" y="0">ff</tspan></text><path class="cls-6" d="M509.88,683l.1-22.4c4.62,0,4.62,3.15,9.25,3.15s4.63-3.15,9.25-3.15,4.63,3.15,9.26,3.15,4.62-3.15,9.25-3.15v22.35Z"/><rect class="cls-27" x="126" y="193.09" width="117.12" height="228.91"/><rect class="cls-2" x="222.71" y="205.51" width="8.87" height="35.49"/><rect class="cls-2" x="205.5" y="205.51" width="8.87" height="35.49"/><rect class="cls-2" x="188.28" y="205.51" width="8.87" height="35.49"/><rect class="cls-2" x="171.07" y="205.51" width="8.87" height="35.49"/><rect class="cls-2" x="153.86" y="205.51" width="8.87" height="35.49"/><rect class="cls-2" x="136.65" y="205.51" width="8.87" height="35.49"/><rect class="cls-2" x="222.71" y="248.1" width="8.87" height="35.49"/><rect class="cls-2" x="205.5" y="248.1" width="8.87" height="35.49"/><rect class="cls-2" x="188.28" y="248.1" width="8.87" height="35.49"/><rect class="cls-2" x="171.07" y="248.1" width="8.87" height="35.49"/><rect class="cls-2" x="153.86" y="248.1" width="8.87" height="35.49"/><rect class="cls-2" x="136.65" y="248.1" width="8.87" height="35.49"/><rect class="cls-2" x="222.71" y="290.69" width="8.87" height="35.49"/><rect class="cls-2" x="205.5" y="290.69" width="8.87" height="35.49"/><rect class="cls-2" x="188.28" y="290.69" width="8.87" height="35.49"/><rect class="cls-2" x="171.07" y="290.69" width="8.87" height="35.49"/><rect class="cls-2" x="153.86" y="290.69" width="8.87" height="35.49"/><rect class="cls-2" x="136.65" y="290.69" width="8.87" height="35.49"/><rect class="cls-4" x="165.93" y="369" width="16.86" height="53"/><rect class="cls-4" x="186.33" y="369" width="16.86" height="53"/><rect class="cls-28" x="243" y="156" width="85" height="266"/><path class="cls-7" d="M270.75,428V383c0-8.8,5.4-15,12-15h6c6.6,0,12,6.2,12,15v45Z"/><rect class="cls-29" x="273" y="174" width="25" height="48"/><rect class="cls-30" x="267.5" y="219.5" width="36.5" height="6.01"/><rect class="cls-29" x="273" y="236" width="25" height="48"/><rect class="cls-30" x="267.5" y="281.5" width="36.5" height="6.01"/><rect class="cls-29" x="273" y="301" width="25" height="48"/><rect class="cls-30" x="267.5" y="346.5" width="36.5" height="6.01"/><rect class="cls-31" x="328" y="132" width="130" height="290"/><rect class="cls-32" x="323" y="121" width="140" height="11"/><rect class="cls-30" x="243" y="144.83" width="85" height="11.17"/><rect class="cls-10" x="340" y="196" width="30" height="3"/><rect class="cls-10" x="340" y="143" width="30" height="3"/><rect class="cls-33" x="342.88" y="148" width="24.22" height="23"/><rect class="cls-34" x="342.88" y="171" width="24.22" height="23.5"/><rect class="cls-10" x="378" y="196" width="30" height="3"/><rect class="cls-10" x="378" y="143" width="30" height="3"/><rect class="cls-33" x="380.88" y="148" width="24.22" height="23"/><rect class="cls-34" x="380.88" y="171" width="24.22" height="23.5"/><rect class="cls-10" x="417" y="196" width="30" height="3"/><rect class="cls-10" x="417" y="143" width="30" height="3"/><rect class="cls-33" x="419.88" y="148" width="24.22" height="23"/><rect class="cls-33" x="419.88" y="171" width="24.22" height="23.5"/><rect class="cls-10" x="339" y="266" width="30" height="3"/><rect class="cls-10" x="339" y="213" width="30" height="3"/><rect class="cls-33" x="341.88" y="218" width="24.22" height="23"/><rect class="cls-33" x="341.88" y="241" width="24.22" height="23.5"/><rect class="cls-10" x="377" y="266" width="30" height="3"/><rect class="cls-10" x="377" y="213" width="30" height="3"/><rect class="cls-33" x="379.88" y="218" width="24.22" height="23"/><rect class="cls-33" x="379.88" y="241" width="24.22" height="23.5"/><rect class="cls-10" x="416" y="266" width="30" height="3"/><rect class="cls-10" x="416" y="213" width="30" height="3"/><rect class="cls-33" x="418.88" y="218" width="24.22" height="23"/><rect class="cls-33" x="418.88" y="241" width="24.22" height="23.5"/><rect class="cls-10" x="339" y="336" width="30" height="3"/><rect class="cls-10" x="339" y="283" width="30" height="3"/><rect class="cls-34" x="341.88" y="288" width="24.22" height="23"/><rect class="cls-34" x="341.88" y="311" width="24.22" height="23.5"/><rect class="cls-10" x="377" y="336" width="30" height="3"/><rect class="cls-10" x="377" y="283" width="30" height="3"/><rect class="cls-34" x="379.88" y="288" width="24.22" height="23"/><rect class="cls-33" x="379.88" y="311" width="24.22" height="23.5"/><rect class="cls-10" x="416" y="336" width="30" height="3"/><rect class="cls-10" x="416" y="283" width="30" height="3"/><rect class="cls-33" x="418.88" y="288" width="24.22" height="23"/><rect class="cls-34" x="418.88" y="311" width="24.22" height="23.5"/><rect class="cls-10" x="344.33" y="369" width="27.67" height="58"/><rect class="cls-35" x="529" y="339" width="238" height="83"/><rect class="cls-7" x="529" y="327" width="238" height="12"/><rect class="cls-35" x="583" y="308" width="129" height="19"/><rect class="cls-10" x="537.5" y="348.5" width="66" height="66"/><path class="cls-7" d="M602,350v63H539V350h63m3-3H536v69h69V347Z"/><rect class="cls-10" x="691.5" y="348.5" width="66" height="66"/><path class="cls-7" d="M756,350v63H693V350h63m3-3H690v69h69V347Z"/><rect class="cls-30" x="612" y="339" width="71" height="83"/><rect class="cls-7" x="622" y="364" width="23" height="58"/><rect class="cls-7" x="648" y="364" width="23" height="58"/><rect class="cls-35" x="623" y="350" width="47" height="7"/><rect class="cls-28" x="767" y="214" width="136" height="208"/><polygon class="cls-30" points="835 184 903 214.49 767 214.49 835 184"/><path class="cls-36" d="M861,282V255.7c0-6,4.2-12.7,9.33-12.7h2.34c5.13,0,9.33,6.71,9.33,12.7V282Z"/><rect class="cls-30" x="858.5" y="280" width="26" height="4"/><path class="cls-36" d="M824.5,282V255.7c0-6,4.2-12.7,9.33-12.7h2.34c5.13,0,9.33,6.71,9.33,12.7V282Z"/><rect class="cls-30" x="822" y="280" width="26" height="4"/><path class="cls-36" d="M786,282V255.7c0-6,4.2-12.7,9.33-12.7h2.34c5.13,0,9.33,6.71,9.33,12.7V282Z"/><rect class="cls-30" x="783.5" y="280" width="26" height="4"/><path class="cls-36" d="M861,337V310.7c0-6,4.2-12.7,9.33-12.7h2.34c5.13,0,9.33,6.71,9.33,12.7V337Z"/><rect class="cls-30" x="858.5" y="335" width="26" height="4"/><path class="cls-36" d="M824.5,337V310.7c0-6,4.2-12.7,9.33-12.7h2.34c5.13,0,9.33,6.71,9.33,12.7V337Z"/><rect class="cls-30" x="822" y="335" width="26" height="4"/><path class="cls-36" d="M786,337V310.7c0-6,4.2-12.7,9.33-12.7h2.34c5.13,0,9.33,6.71,9.33,12.7V337Z"/><rect class="cls-30" x="783.5" y="335" width="26" height="4"/><path class="cls-36" d="M861,392.75v-26.3c0-6,4.2-12.7,9.33-12.7h2.34c5.13,0,9.33,6.71,9.33,12.7v26.3Z"/><rect class="cls-30" x="858.5" y="390.75" width="26" height="4"/><path class="cls-36" d="M824.5,392.75v-26.3c0-6,4.2-12.7,9.33-12.7h2.34c5.13,0,9.33,6.71,9.33,12.7v26.3Z"/><rect class="cls-30" x="822" y="390.75" width="26" height="4"/><path class="cls-36" d="M786,392.75v-26.3c0-6,4.2-12.7,9.33-12.7h2.34c5.13,0,9.33,6.71,9.33,12.7v26.3Z"/><rect class="cls-30" x="783.5" y="390.75" width="26" height="4"/><rect class="cls-37" y="422" width="984" height="26"/><path class="cls-2" d="M144.49,53a48,48,0,0,0-7.41.57C132.4,44,116.89,36.93,98.48,36.93c-20.46,0-37.34,8.72-39.76,20C47.74,57.35,39,63.39,39,70.77c0,7.68,9.4,13.9,21,13.9h.32v.13h79.59c1.48.14,3,.21,4.56.21,15.53,0,28.12-7.15,28.12-16S160,53,144.49,53Z"/><path class="cls-4" d="M103.24,65.17c-.41-6.43-7.39-11.55-15.94-11.55a20.08,20.08,0,0,0-6.2,1c-4.51-4.76-11.8-7.85-20-7.85-10.34,0-19.19,4.88-22.92,11.81A14.27,14.27,0,0,0,36,58.36,13.46,13.46,0,1,0,38.68,85H97.23a16.14,16.14,0,0,0,2.91.27c7.1,0,12.86-4.57,12.86-10.21C113,70.28,108.84,66.27,103.24,65.17Z"/><path class="cls-4" d="M585.88,75.74a25.68,25.68,0,0,1,4,.31c2.51-5.17,10.84-9,20.73-9,11,0,20,4.68,21.35,10.73,5.9.23,10.57,3.48,10.57,7.44,0,4.13-5,7.47-11.27,7.47h-.17v.07H588.33c-.8.07-1.62.11-2.45.11-8.34,0-15.11-3.84-15.11-8.58S577.54,75.74,585.88,75.74Z"/></g></svg>