<svg xmlns="http://www.w3.org/2000/svg" viewBox="0 0 984 630"><defs><style>.cls-1{fill:#ede8d9;}.cls-2{fill:#456168;}.cls-3{fill:#3d575b;}.cls-4{fill:#92cfe1;}.cls-5{fill:#8cc6d3;}.cls-6{fill:#fff;}.cls-7{fill:#f2f2f2;}.cls-15,.cls-8{fill:none;stroke-miterlimit:10;}.cls-8{stroke:#92cfe1;stroke-dasharray:5 7;}.cls-9{fill:#42210b;}.cls-10{fill:#006836;}.cls-11{fill:#005e2f;}.cls-12{fill:#491f0f;}.cls-13{fill:#007538;}.cls-14{fill:#ddaf3c;}.cls-14,.cls-15{opacity:0.79;}.cls-15{stroke:#ddaf3c;}.cls-16{fill:#e6e6e6;}</style></defs><title>Natural Ground Cover_3</title><g id="Natural_Ground_Cover" data-name="Natural Ground Cover"><rect id="Underground" class="cls-1" x="-1" y="363" width="984" height="267"/><g id="Deep_Infiltration" data-name="Deep Infiltration"><polygon class="cls-2" points="868.99 473 868.99 289.37 847 289.37 847 473 831 473 857.5 507.63 883.99 473 868.99 473"/><polygon class="cls-3" points="858.1 507.63 884.59 473 869.59 473 869.59 289.37 858.6 289.37 858.1 507.63"/><polygon class="cls-2" points="674.99 473 674.99 289.37 653 289.37 653 473 637 473 663.5 507.63 689.99 473 674.99 473"/><polygon class="cls-3" points="663.5 507.63 689.99 473 674.99 473 674.99 289.37 664 289.37 663.5 507.63"/><polygon class="cls-2" points="509.99 474 509.99 290.37 488 290.37 488 474 472 474 498.5 508.63 524.99 474 509.99 474"/><polygon class="cls-3" points="498.5 508.63 524.99 474 509.99 474 509.99 290.37 499 290.37 498.5 508.63"/><polygon class="cls-2" points="299.99 472 299.99 290.37 278 290.37 278 472 262 472 288.5 506.63 314.99 472 299.99 472"/><polygon class="cls-3" points="288.25 506.63 314.75 472 299.75 472 299.75 288.37 288.75 288.37 288.25 506.63"/><polygon class="cls-2" points="115.99 473 115.99 287.37 94 287.37 94 473 78 473 104.5 507.63 130.99 473 115.99 473"/><polygon class="cls-3" points="104.5 507.63 130.99 473 115.99 473 115.99 289.37 105 289.37 104.5 507.63"/></g><g id="Shallow_Infiltration" data-name="Shallow Infiltration"><polygon class="cls-4" points="969 430.37 969 364.37 946.99 364.37 946.99 430.37 931 430.37 957.5 465 983.99 430.37 969 430.37"/><polygon class="cls-5" points="957.84 465.28 984.34 430.65 969.34 430.65 969.34 353.02 958.34 353.02 957.84 465.28"/><polygon class="cls-4" points="780 430.37 780 364.37 757.99 364.37 757.99 430.37 742 430.37 768.5 465 794.99 430.37 780 430.37"/><polygon class="cls-5" points="768.5 465.28 794.99 430.65 779.99 430.65 779.99 353.02 769 353.02 768.5 465.28"/><polygon class="cls-4" points="599 430.37 599 364.37 576.99 364.37 576.99 430.37 561 430.37 587.5 465 613.99 430.37 599 430.37"/><polygon class="cls-5" points="587 465.28 613.5 430.65 598.5 430.65 598.5 353.02 587.5 353.02 587 465.28"/><polygon class="cls-4" points="414 430.37 414 364.37 391.99 364.37 391.99 430.37 376 430.37 402.5 465 428.99 430.37 414 430.37"/><polygon class="cls-5" points="402.5 465.28 428.99 430.65 413.99 430.65 413.99 353.02 403 353.02 402.5 465.28"/><polygon class="cls-4" points="221 430.37 221 364.37 198.99 364.37 198.99 430.37 183 430.37 209.5 465 235.99 430.37 221 430.37"/><polygon class="cls-5" points="209.5 465.28 235.99 430.65 220.99 430.65 220.99 353.02 210 353.02 209.5 465.28"/><polygon class="cls-4" points="38 430.37 38 364.37 15.99 364.37 15.99 430.37 0 430.37 26.5 465 52.99 430.37 38 430.37"/><polygon class="cls-5" points="26.5 464.34 52.99 429.71 37.99 429.71 37.99 352.08 27 352.08 26.5 464.34"/></g><rect id="Sky" class="cls-6" x="-0.66" width="986" height="375.23"/><g id="Evapotranspiration"><polygon class="cls-7" points="957.84 191.03 931.34 225.66 947.34 225.66 947.34 363.34 969.34 363.34 969.34 225.66 984.34 225.66 957.84 191.03"/><polygon class="cls-7" points="771.64 191.03 745.14 225.66 761.14 225.66 761.14 363.34 783.14 363.34 783.14 225.66 798.14 225.66 771.64 191.03"/><polygon class="cls-7" points="585.44 191.03 558.94 225.66 574.94 225.66 574.94 363.34 596.94 363.34 596.94 225.66 611.94 225.66 585.44 191.03"/><polygon class="cls-7" points="399.24 191.03 372.74 225.66 388.74 225.66 388.74 363.34 410.74 363.34 410.74 225.66 425.74 225.66 399.24 191.03"/><polygon class="cls-7" points="213.04 191.03 186.54 225.66 202.54 225.66 202.54 363.34 224.54 363.34 224.54 225.66 239.54 225.66 213.04 191.03"/><polygon class="cls-7" points="26.84 191.03 0.34 225.66 16.34 225.66 16.34 363.34 38.34 363.34 38.34 225.66 53.34 225.66 26.84 191.03"/><rect class="cls-7" x="847" y="173" width="22.34" height="190.34"/><polygon class="cls-7" points="857.84 138.03 831.34 172.66 884.34 172.66 857.84 138.03"/><rect class="cls-7" x="652" y="172" width="22.34" height="190.34"/><polygon class="cls-7" points="662.84 137.03 636.34 171.66 689.34 171.66 662.84 137.03"/><rect class="cls-7" x="487" y="173" width="22.34" height="190.34"/><polygon class="cls-7" points="497.84 138.03 471.34 172.66 524.34 172.66 497.84 138.03"/><rect class="cls-7" x="94" y="172" width="22.34" height="190.34"/><polygon class="cls-7" points="104.84 137.03 78.34 171.66 131.34 171.66 104.84 137.03"/></g><g id="Runoff"><path class="cls-4" d="M984.52,371v18H-2V371l-.5-25.5c15.45,0,15.45,8,30.89,8s15.45-8,30.89-8,15.45,8,30.89,8,15.45-8,30.89-8,15.45,8,30.89,8,15.45-8,30.89-8,15.44,8,30.89,8,15.44-8,30.88-8,15.45,8,30.89,8,15.44-8,30.89-8,15.44,8,30.89,8,15.44-8,30.89-8,15.44,8,30.89,8,15.44-8,30.89-8,15.44,8,30.89,8,15.44-8,30.89-8,15.44,8,30.89,8,15.44-8,30.89-8,15.45,8,30.89,8,15.45-8,30.89-8,15.45,8,30.9,8,15.44-8,30.89-8,15.44,8,30.89,8,15.45-8,30.89-8,15.44,8,30.89,8,15.45-8,30.89-8,15.45,8,30.9,8,15.45-8,30.89-8,15.45,8,30.9,8,15.45-8,30.9-8,15.45,8,30.9,8,15.45-8,30.9-8Z"/></g><g id="Rain"><line class="cls-8" x1="408.41" y1="87.79" x2="408.41" y2="359.12"/><line class="cls-8" x1="472.22" y1="86.96" x2="472.22" y2="371.62"/><line class="cls-8" x1="423.13" y1="86.25" x2="423.13" y2="359.12"/><line class="cls-8" x1="438.63" y1="87.14" x2="438.63" y2="373.11"/><line class="cls-8" x1="455.88" y1="87.14" x2="455.88" y2="360.12"/><line class="cls-8" x1="610.81" y1="92.02" x2="610.81" y2="363.35"/><line class="cls-8" x1="674.63" y1="91.18" x2="674.63" y2="375.85"/><line class="cls-8" x1="625.53" y1="90.48" x2="625.53" y2="363.35"/><line class="cls-8" x1="641.03" y1="91.36" x2="641.03" y2="377.33"/><line class="cls-8" x1="658.28" y1="91.36" x2="658.28" y2="364.35"/><line class="cls-8" x1="50.19" y1="75.55" x2="53.11" y2="364.37"/><line class="cls-8" x1="33.33" y1="73.55" x2="36.26" y2="362.37"/><line class="cls-8" x1="65.18" y1="75.4" x2="68.01" y2="355.12"/><line class="cls-8" x1="80.18" y1="75.25" x2="83.08" y2="361.2"/><line class="cls-8" x1="96.35" y1="73.97" x2="99.3" y2="364.37"/><line class="cls-8" x1="114.6" y1="75.33" x2="115.63" y2="359.12"/><line class="cls-8" x1="132.83" y1="75.14" x2="135.68" y2="356"/><line class="cls-8" x1="152.3" y1="75.14" x2="153" y2="363.34"/><line class="cls-8" x1="813.22" y1="101.83" x2="815.83" y2="359.12"/><line class="cls-8" x1="828.21" y1="101.68" x2="830.85" y2="362.34"/><line class="cls-8" x1="843.22" y1="101.53" x2="846.12" y2="387.49"/><line class="cls-8" x1="859.38" y1="100.26" x2="861.96" y2="354.68"/><line class="cls-8" x1="877.64" y1="101.61" x2="878.72" y2="355.33"/><line class="cls-8" x1="895.87" y1="101.43" x2="898.49" y2="360.12"/><line class="cls-8" x1="913.47" y1="101.43" x2="916.13" y2="364.37"/><line class="cls-8" x1="932.08" y1="100.18" x2="934.67" y2="355.12"/></g><g id="Trees"><polygon class="cls-9" points="286.26 254.43 286.75 235.37 324.31 218.03 340.48 191.51 350.59 195.16 334.16 223.61 286.26 254.43"/><polygon class="cls-9" points="284.9 171.82 284.57 158.41 275.19 156.33 264.34 138.53 257.55 140.98 268.58 160.07 284.9 171.82"/><polygon class="cls-9" points="299.27 369 273.8 369 277.65 67.78 292.53 67.78 299.27 369"/><polygon class="cls-9" points="289.15 183.16 289.64 164.1 327.2 146.76 343.37 120.24 353.48 123.89 337.05 152.34 289.15 183.16"/><polygon class="cls-9" points="279.31 200.49 278.83 181.43 225.85 159.28 210.65 134.69 200.54 138.34 216.97 166.79 279.31 200.49"/><path class="cls-10" d="M252.28,126.65c0,19-21.13,25.39-47.2,25.39s-47.2-6.38-47.2-25.39S179,83.19,205.08,83.19,252.28,107.63,252.28,126.65Z"/><path class="cls-11" d="M205.08,83.19c26.07,0,47.2,24.44,47.2,43.46S231.15,152,205.08,152Z"/><path class="cls-10" d="M382.87,197.88c0,13.92-17.26,18.67-44.67,18.67s-43.44-4.75-43.44-18.67,16-36.4,43.44-36.4S382.87,184,382.87,197.88Z"/><path class="cls-11" d="M338.2,161.48c27.41,0,44.67,22.49,44.67,36.4s-17.26,18.67-44.67,18.67Z"/><path class="cls-10" d="M373.43,127.63c0,9.83-13.73,15-30.68,15s-30.68-5.14-30.68-15,13.74-29.08,30.68-29.08S373.43,117.81,373.43,127.63Z"/><path class="cls-11" d="M342.75,98.55c16.95,0,30.68,19.26,30.68,29.08s-13.73,15-30.68,15Z"/><path class="cls-10" d="M288.68,143.36c0,8.26-9.92,11.1-22.16,11.1s-22.15-2.84-22.15-11.1,9.92-21.69,22.15-21.69S288.68,135.11,288.68,143.36Z"/><path class="cls-11" d="M266.52,121.67c12.24,0,22.16,13.44,22.16,21.69s-9.92,11.1-22.16,11.1Z"/><path class="cls-10" d="M338.82,59.47c0,18.37-23.6,23.34-52.71,23.34s-52.71-5-52.71-23.34S257,13,286.11,13,338.82,41.11,338.82,59.47Z"/><path class="cls-11" d="M286.11,13c29.11,0,52.71,28.11,52.71,46.47s-23.6,23.34-52.71,23.34Z"/><polygon class="cls-9" points="179.32 369 154.2 369 159.69 193.44 173.83 193.44 179.32 369"/><path class="cls-10" d="M214.11,258.66c0,37.75-24.42,53-46.57,53S118,297,118,259.21s27.39-91.95,49.54-91.95S214.11,220.92,214.11,258.66Z"/><path class="cls-11" d="M167.54,167.26c22.15,0,46.57,53.66,46.57,91.4s-24.42,53-46.57,53Z"/><polygon class="cls-9" points="609.96 367.4 589.25 367.4 593.78 222.71 605.43 222.71 609.96 367.4"/><path class="cls-10" d="M638.62,276.46c0,31.11-20.12,43.67-38.37,43.67s-40.84-12.1-40.84-43.22,22.58-75.79,40.84-75.79S638.62,245.35,638.62,276.46Z"/><path class="cls-11" d="M600.25,201.12c18.25,0,38.37,44.23,38.37,75.34s-20.12,43.67-38.37,43.67Z"/><polygon class="cls-9" points="771.64 369.5 736.56 369.5 744.23 151.57 763.97 151.57 771.64 369.5"/><polygon class="cls-12" points="755.1 151.57 764.97 151.57 772.64 369.5 755.1 369.5 755.1 151.57"/><path class="cls-10" d="M690,183c0-52.71,34.09-63,65-63s69.19,9.5,69.19,62.22S786,293.64,755,293.64,690,235.7,690,183Z"/><path class="cls-11" d="M757.09,120c20.07.42,44.12,10.64,44.12,62.2s-24,108.78-44.1,111.32c30.54-2.53,67.1-59.78,67.1-111.32S787.63,120.44,757.09,120Z"/><polygon class="cls-9" points="451.84 369 425.05 369 428.78 234.04 448.11 234.04 451.84 369"/><polygon class="cls-10" points="439.1 126.91 499.03 308.53 379.17 308.53 439.1 126.91"/><polygon class="cls-11" points="439.1 126.91 499.03 308.53 439.1 308.53 439.1 126.91"/></g><g id="Horizon"><rect class="cls-13" x="-10" y="363" width="1005.96" height="20"/><polygon class="cls-9" points="998 412 -7.96 412 -10 373.92 995.96 373.92 998 412"/></g><g id="Sun"><circle class="cls-14" cx="545.3" cy="71.11" r="21"/><line class="cls-15" x1="544.3" y1="43.11" x2="544.3" y2="34.11"/><line class="cls-15" x1="532.75" y1="45.78" x2="529.09" y2="37.55"/><line class="cls-15" x1="523.29" y1="52.91" x2="516.6" y2="46.89"/><line class="cls-15" x1="517.54" y1="63.28" x2="508.98" y2="60.5"/><line class="cls-15" x1="516.51" y1="75.08" x2="507.56" y2="76.02"/><line class="cls-15" x1="520.37" y1="86.29" x2="512.57" y2="90.79"/><line class="cls-15" x1="528.45" y1="94.96" x2="523.16" y2="102.24"/><line class="cls-15" x1="539.36" y1="99.59" x2="537.49" y2="108.39"/><line class="cls-15" x1="551.21" y1="99.38" x2="553.09" y2="108.18"/><line class="cls-15" x1="561.96" y1="94.37" x2="567.25" y2="101.65"/><line class="cls-15" x1="569.73" y1="85.42" x2="577.53" y2="89.92"/><line class="cls-15" x1="573.2" y1="74.09" x2="582.15" y2="75.03"/><line class="cls-15" x1="571.75" y1="62.33" x2="580.31" y2="59.54"/><line class="cls-15" x1="565.64" y1="52.17" x2="572.33" y2="46.14"/><line class="cls-15" x1="555.94" y1="45.37" x2="559.6" y2="37.15"/></g><g id="Clouds"><path class="cls-16" d="M143.49,45a48,48,0,0,0-7.41.57C131.4,36,115.89,28.93,97.48,28.93c-20.46,0-37.34,8.72-39.76,20C46.74,49.35,38,55.39,38,62.77c0,7.68,9.4,13.9,21,13.9h.32v.13h79.59c1.48.14,3,.21,4.56.21,15.53,0,28.12-7.15,28.12-16S159,45,143.49,45Z"/><path class="cls-16" d="M473.44,66.65c-.45-6.93-8-12.43-17.16-12.43a22,22,0,0,0-6.69,1c-4.85-5.12-12.7-8.45-21.55-8.45-11.13,0-20.67,5.26-24.68,12.72a15.11,15.11,0,0,0-2.35-.19,14.49,14.49,0,1,0,0,29,14.73,14.73,0,0,0,2.91-.29h63a16.87,16.87,0,0,0,3.13.29c7.65,0,13.85-4.92,13.85-11C483.94,72.15,479.47,67.84,473.44,66.65Z"/><path class="cls-7" d="M102.24,57.17c-.41-6.43-7.39-11.55-15.94-11.55a20.08,20.08,0,0,0-6.2,1c-4.51-4.76-11.8-7.85-20-7.85-10.34,0-19.19,4.88-22.92,11.81A14.27,14.27,0,0,0,35,50.36,13.46,13.46,0,1,0,37.68,77H96.23a16.14,16.14,0,0,0,2.91.27c7.1,0,12.86-4.57,12.86-10.21C112,62.28,107.84,58.27,102.24,57.17Z"/><path class="cls-16" d="M939,79.93C939,71.42,932.1,64,921.85,60c-4.43-14.32-21.26-25-41.35-25-18.71,0-34.58,9.25-40.26,22.09-.9-.06-1.82-.09-2.74-.09-14.32,0-26.45,6.76-30.53,16.09a19.2,19.2,0,0,0-3-.24c-9.39,0-17,6.75-17,15.07s7.34,14.82,16.5,15.06v0H905C923.82,102.81,939,92.56,939,79.93Z"/><path class="cls-7" d="M950,89.14c0-5.11-4.14-9.57-10.3-12-2.66-8.61-12.77-15-24.84-15-11.23,0-20.77,5.55-24.18,13.27-.54,0-1.09-.06-1.64-.06-8.61,0-15.89,4.06-18.34,9.67a10.43,10.43,0,0,0-1.78-.15c-5.64,0-10.21,4-10.21,9s4.41,8.9,9.91,9h61C940.88,102.89,950,96.73,950,89.14Z"/><path class="cls-7" d="M474.19,71a25.68,25.68,0,0,0-4,.31c-2.51-5.17-10.84-9-20.73-9-11,0-20.05,4.68-21.35,10.73-5.9.23-10.57,3.48-10.57,7.44,0,4.13,5,7.47,11.27,7.47H429V88h42.74c.8.07,1.62.11,2.45.11,8.35,0,15.11-3.84,15.11-8.58S482.54,71,474.19,71Z"/><path class="cls-16" d="M609.46,70.35c.45-6.92,8-12.43,17.16-12.43a21.84,21.84,0,0,1,6.68,1c4.86-5.12,12.71-8.45,21.56-8.45,11.13,0,20.66,5.25,24.68,12.72a15.11,15.11,0,0,1,2.35-.19,14.49,14.49,0,1,1,0,29,14.73,14.73,0,0,1-2.91-.29h-63a17.86,17.86,0,0,1-3.13.29C605.16,92,599,87.08,599,81,599,75.86,603.43,71.54,609.46,70.35Z"/><path class="cls-7" d="M608.7,74.66a27,27,0,0,1,4,.3C615.2,69.8,623.53,66,633.42,66c11,0,20.05,4.68,21.35,10.72,5.9.24,10.57,3.48,10.57,7.45s-5.05,7.46-11.27,7.46h-.17v.07H611.16c-.8.07-1.62.11-2.46.11-8.34,0-15.1-3.84-15.1-8.58S600.36,74.66,608.7,74.66Z"/></g><g id="Ten_Percent_Runoff" data-name="Ten Percent Runoff"><rect class="cls-6" x="642.68" y="311.18" width="251.01" height="46.83"/><path d="M732.35,344.12v.65H721v-.65h5.35V324.31c0-.16,0-.32,0-.5s0-.34,0-.51l-5.49,4.93a.27.27,0,0,1-.27.1.36.36,0,0,1-.24-.13l-.24-.32,6.4-5.71h.61v21.95Z"/><path d="M752.41,333.53a18.42,18.42,0,0,1-.63,5.12,10.64,10.64,0,0,1-1.72,3.56,7,7,0,0,1-2.55,2.1,7.13,7.13,0,0,1-3.1.69,7.21,7.21,0,0,1-3.11-.69,7,7,0,0,1-2.54-2.1,10.64,10.64,0,0,1-1.72-3.56,21.12,21.12,0,0,1,0-10.24,11,11,0,0,1,1.72-3.59,7,7,0,0,1,2.54-2.11,7.21,7.21,0,0,1,3.11-.69,7.13,7.13,0,0,1,3.1.69,7,7,0,0,1,2.55,2.11,11,11,0,0,1,1.72,3.59A18.47,18.47,0,0,1,752.41,333.53Zm-.88,0a18.32,18.32,0,0,0-.57-4.88,10.26,10.26,0,0,0-1.54-3.36,6.17,6.17,0,0,0-10,0,10.48,10.48,0,0,0-1.55,3.36,21.13,21.13,0,0,0,0,9.75,10.26,10.26,0,0,0,1.55,3.34,6.29,6.29,0,0,0,2.28,1.93,6.39,6.39,0,0,0,5.49,0,6.26,6.26,0,0,0,2.27-1.93A10.05,10.05,0,0,0,751,338.4,18.29,18.29,0,0,0,751.53,333.53Z"/><path d="M764.57,327.69a7.44,7.44,0,0,1-.37,2.48,5,5,0,0,1-1,1.75,4,4,0,0,1-1.46,1,4.52,4.52,0,0,1-1.76.34,4.6,4.6,0,0,1-1.79-.34,4,4,0,0,1-1.45-1,5,5,0,0,1-1-1.75,7.72,7.72,0,0,1-.36-2.48,7.87,7.87,0,0,1,.36-2.51,5,5,0,0,1,1-1.77,4,4,0,0,1,1.45-1,4.73,4.73,0,0,1,3.57,0,4,4,0,0,1,1.45,1,5,5,0,0,1,1,1.77A7.87,7.87,0,0,1,764.57,327.69Zm-.69,0a7.38,7.38,0,0,0-.31-2.29,4.64,4.64,0,0,0-.84-1.58,3.33,3.33,0,0,0-1.24-.91,3.83,3.83,0,0,0-1.5-.3,3.88,3.88,0,0,0-1.51.3,3.33,3.33,0,0,0-1.24.91,4.64,4.64,0,0,0-.84,1.58,8.58,8.58,0,0,0,0,4.57,4.63,4.63,0,0,0,.84,1.56,3.27,3.27,0,0,0,1.24.89,4.06,4.06,0,0,0,1.51.29,4,4,0,0,0,1.5-.29,3.27,3.27,0,0,0,1.24-.89,4.63,4.63,0,0,0,.84-1.56A7.35,7.35,0,0,0,763.88,327.69Zm9.55-5.22a.94.94,0,0,1,.16-.14.39.39,0,0,1,.23-.05h.56l-16,22.3a.41.41,0,0,1-.37.19h-.57Zm3.14,16.94a7.4,7.4,0,0,1-.37,2.48,5,5,0,0,1-1,1.76,4.13,4.13,0,0,1-1.46,1A4.56,4.56,0,0,1,772,345a4.67,4.67,0,0,1-1.79-.34,4,4,0,0,1-1.46-1,4.83,4.83,0,0,1-1-1.76,7.4,7.4,0,0,1-.37-2.48,7.52,7.52,0,0,1,.37-2.5,4.75,4.75,0,0,1,1-1.76,4,4,0,0,1,1.46-1,4.67,4.67,0,0,1,1.79-.34,4.54,4.54,0,0,1,1.77.34,4,4,0,0,1,1.46,1,4.91,4.91,0,0,1,1,1.76A7.52,7.52,0,0,1,776.57,339.41Zm-.69,0a7.35,7.35,0,0,0-.31-2.28,4.64,4.64,0,0,0-.84-1.58,3.33,3.33,0,0,0-1.24-.91,3.88,3.88,0,0,0-1.51-.3,3.8,3.8,0,0,0-1.51.3,3.29,3.29,0,0,0-1.23.91,4.64,4.64,0,0,0-.84,1.58,7.35,7.35,0,0,0-.31,2.28,7.26,7.26,0,0,0,.31,2.28,4.59,4.59,0,0,0,.84,1.57,3.29,3.29,0,0,0,1.23.91,4,4,0,0,0,1.51.28,4,4,0,0,0,1.51-.28,3.33,3.33,0,0,0,1.24-.91,4.59,4.59,0,0,0,.84-1.57A7.26,7.26,0,0,0,775.88,339.41Z"/><path d="M805.72,344.77H805a1,1,0,0,1-.31,0,.69.69,0,0,1-.27-.23l-7.93-9.71a1.92,1.92,0,0,0-.27-.29,1.49,1.49,0,0,0-.3-.18,1.92,1.92,0,0,0-.4-.11,4.45,4.45,0,0,0-.57,0h-3.28v10.59h-.88V322.28h5.43a9.18,9.18,0,0,1,5.56,1.42,5.05,5.05,0,0,1,1.91,4.32,5.71,5.71,0,0,1-.5,2.41,5.55,5.55,0,0,1-1.39,1.87,6.84,6.84,0,0,1-2.18,1.27,9.87,9.87,0,0,1-2.83.56,2.21,2.21,0,0,1,.56.48Zm-14.05-11.26H796a9.76,9.76,0,0,0,2.86-.38,6.44,6.44,0,0,0,2.16-1.08,4.92,4.92,0,0,0,1.36-1.72,5.4,5.4,0,0,0,.47-2.28,4.45,4.45,0,0,0-1.7-3.84,8.25,8.25,0,0,0-4.89-1.23h-4.55Z"/><path d="M820.31,329v15.77h-.38a.32.32,0,0,1-.34-.32l-.08-2.75a8.83,8.83,0,0,1-2.64,2.43,6.44,6.44,0,0,1-3.34.9,6,6,0,0,1-2.3-.41,4.21,4.21,0,0,1-1.63-1.17,5,5,0,0,1-1-1.86,9.13,9.13,0,0,1-.32-2.5V329h.84v10.09a7.85,7.85,0,0,0,.28,2.21,4.34,4.34,0,0,0,.84,1.66,3.64,3.64,0,0,0,1.42,1,5.15,5.15,0,0,0,2,.36,5.84,5.84,0,0,0,3.17-.91,9.09,9.09,0,0,0,2.62-2.5V329Z"/><path d="M826.73,332.05a8.61,8.61,0,0,1,2.63-2.41,6.46,6.46,0,0,1,3.34-.9,6,6,0,0,1,2.29.41,4.14,4.14,0,0,1,1.63,1.17,5,5,0,0,1,1,1.86,8.75,8.75,0,0,1,.33,2.5v10.09h-.85V334.68a8.31,8.31,0,0,0-.27-2.21,4.41,4.41,0,0,0-.84-1.66,3.72,3.72,0,0,0-1.42-1,5.07,5.07,0,0,0-2-.36,6,6,0,0,0-3.19.91,9,9,0,0,0-2.6,2.5v11.95h-.85V329h.4c.2,0,.31.1.32.32Z"/><path d="M849.42,328.74a7.2,7.2,0,0,1,3,.59,6.2,6.2,0,0,1,2.2,1.64,7.26,7.26,0,0,1,1.36,2.57,11.31,11.31,0,0,1,.46,3.35,11.17,11.17,0,0,1-.46,3.33,7.08,7.08,0,0,1-1.36,2.55,6,6,0,0,1-2.2,1.63,8.1,8.1,0,0,1-6,0,6,6,0,0,1-2.2-1.63,7.08,7.08,0,0,1-1.36-2.55,11.17,11.17,0,0,1-.46-3.33,11.31,11.31,0,0,1,.46-3.35,7.26,7.26,0,0,1,1.36-2.57,6.2,6.2,0,0,1,2.2-1.64A7.25,7.25,0,0,1,849.42,328.74Zm0,15.55a6.38,6.38,0,0,0,2.68-.52,5.31,5.31,0,0,0,1.93-1.51,6.46,6.46,0,0,0,1.16-2.33,11,11,0,0,0,.39-3,11.24,11.24,0,0,0-.39-3.06,6.52,6.52,0,0,0-1.16-2.36A5.23,5.23,0,0,0,852.1,330a6.95,6.95,0,0,0-5.37,0,5.23,5.23,0,0,0-1.93,1.52,6.68,6.68,0,0,0-1.16,2.36,11.25,11.25,0,0,0-.38,3.06,11,11,0,0,0,.38,3,6.62,6.62,0,0,0,1.16,2.33,5.31,5.31,0,0,0,1.93,1.51A6.42,6.42,0,0,0,849.42,344.29Z"/><path d="M861.74,344.77V330.26l-2.47-.09c-.2,0-.3-.11-.3-.24v-.32h2.77v-2.08a7.55,7.55,0,0,1,.32-2.35,4.6,4.6,0,0,1,.93-1.66,3.84,3.84,0,0,1,1.43-1,5.17,5.17,0,0,1,1.83-.32,6.45,6.45,0,0,1,1,.08,3.43,3.43,0,0,1,.87.26l-.05.37c0,.08,0,.13-.11.13a1,1,0,0,1-.31,0l-.52-.09a4,4,0,0,0-.76-.06,4.29,4.29,0,0,0-1.5.25,2.76,2.76,0,0,0-1.19.81,3.82,3.82,0,0,0-.79,1.44,6.91,6.91,0,0,0-.29,2.17v2.07h8.73v-2.29a7.53,7.53,0,0,1,.33-2.35,4.6,4.6,0,0,1,.93-1.66,3.67,3.67,0,0,1,1.42-1,4.9,4.9,0,0,1,1.84-.32,5.33,5.33,0,0,1,1,.08,3.35,3.35,0,0,1,.86.25l0,.37a.16.16,0,0,1-.13.14,1.53,1.53,0,0,1-.3,0l-.52-.09a4.18,4.18,0,0,0-.76-.06,4.55,4.55,0,0,0-1.51.25,3,3,0,0,0-1.19.81,3.79,3.79,0,0,0-.79,1.45,7.1,7.1,0,0,0-.29,2.16v2.28h5.42v.64h-5.4v14.52h-.84V330.25h-8.72v14.52Z"/><path class="cls-4" d="M657.45,346.16l.1-22.4c4.62,0,4.62,3.15,9.25,3.15s4.63-3.15,9.25-3.15,4.63,3.15,9.26,3.15,4.62-3.15,9.25-3.15v22.35Z"/></g><g id="Twentyfive_Percent_Shallow_Infiltration" data-name="Twentyfive Percent Shallow Infiltration"><rect class="cls-6" x="375.18" y="468.87" width="401.69" height="46.83"/><polygon class="cls-4" points="394.35 497.87 394.35 476.47 387.22 476.47 387.22 497.87 382.03 497.87 390.62 509.1 399.21 497.87 394.35 497.87"/><polygon class="cls-4" points="413.16 497.87 413.16 476.47 406.02 476.47 406.02 497.87 400.84 497.87 409.43 509.1 418.02 497.87 413.16 497.87"/><path d="M463,505.29a.27.27,0,0,1,.3.3v.48H449.06v-.3a.48.48,0,0,1,.06-.24,1.18,1.18,0,0,1,.13-.18l7.94-8c.65-.66,1.26-1.31,1.82-1.94a15,15,0,0,0,1.49-1.91,9.33,9.33,0,0,0,1-2,6.54,6.54,0,0,0,.37-2.19,5.53,5.53,0,0,0-.47-2.37,4.75,4.75,0,0,0-1.23-1.64,4.88,4.88,0,0,0-1.75-.95,6.68,6.68,0,0,0-2-.31,6.29,6.29,0,0,0-2.17.36,5.67,5.67,0,0,0-1.74,1,5.4,5.4,0,0,0-1.25,1.55,6.6,6.6,0,0,0-.68,2c-.07.28-.23.4-.48.37l-.4-.05a7.66,7.66,0,0,1,.76-2.48,6.39,6.39,0,0,1,1.45-1.87,6.1,6.1,0,0,1,2-1.17,7.3,7.3,0,0,1,2.51-.41,8,8,0,0,1,2.35.35,6,6,0,0,1,2,1.08,5.19,5.19,0,0,1,1.41,1.86,6.25,6.25,0,0,1,.53,2.66,7.07,7.07,0,0,1-.4,2.38,10.09,10.09,0,0,1-1.08,2.12,16.55,16.55,0,0,1-1.58,2c-.6.65-1.23,1.3-1.89,2l-7.58,7.74c.28,0,.58-.08.9-.1s.67,0,1,0Z"/><path d="M470.1,492.71a18.06,18.06,0,0,1,2.19-.44,15.06,15.06,0,0,1,2-.14,8.88,8.88,0,0,1,3.08.5,6.07,6.07,0,0,1,2.22,1.38,5.85,5.85,0,0,1,1.34,2.12,7.48,7.48,0,0,1,.46,2.69,7.76,7.76,0,0,1-.61,3.17,6.92,6.92,0,0,1-1.65,2.36,7,7,0,0,1-2.43,1.47,8.33,8.33,0,0,1-2.91.51,8.56,8.56,0,0,1-1.71-.16,9.9,9.9,0,0,1-1.54-.4,8.91,8.91,0,0,1-1.32-.59,9.62,9.62,0,0,1-1.05-.66l.24-.32a.34.34,0,0,1,.31-.16,1.29,1.29,0,0,1,.54.24,9.42,9.42,0,0,0,1,.52,10.12,10.12,0,0,0,1.51.52,8.27,8.27,0,0,0,4.64-.2,6.11,6.11,0,0,0,2.13-1.3,6,6,0,0,0,1.44-2.11,7.45,7.45,0,0,0,.53-2.89,7.11,7.11,0,0,0-.39-2.4,4.92,4.92,0,0,0-1.16-1.9,5.33,5.33,0,0,0-2-1.25,8.1,8.1,0,0,0-2.84-.45,17.71,17.71,0,0,0-4.32.63l-.56-.2,1.72-9.68h9.84v.36a.4.4,0,0,1-.12.29.52.52,0,0,1-.38.12h-8.7Z"/><path d="M495,489a7.4,7.4,0,0,1-.37,2.48,5,5,0,0,1-1,1.75,3.81,3.81,0,0,1-1.46,1,4.53,4.53,0,0,1-1.76.35,4.64,4.64,0,0,1-1.79-.35,3.78,3.78,0,0,1-1.45-1,4.86,4.86,0,0,1-1-1.75,7.68,7.68,0,0,1-.36-2.48,7.8,7.8,0,0,1,.36-2.5,5,5,0,0,1,1-1.77,3.92,3.92,0,0,1,1.45-1,4.86,4.86,0,0,1,3.57,0,4,4,0,0,1,1.46,1,5.19,5.19,0,0,1,1,1.77A7.8,7.8,0,0,1,495,489Zm-.69,0a7.42,7.42,0,0,0-.31-2.29,4.59,4.59,0,0,0-.84-1.57,3.22,3.22,0,0,0-1.24-.91,3.83,3.83,0,0,0-1.5-.3,3.88,3.88,0,0,0-1.51.3,3.22,3.22,0,0,0-1.24.91,4.59,4.59,0,0,0-.84,1.57,7.42,7.42,0,0,0-.31,2.29,7.26,7.26,0,0,0,.31,2.28,4.44,4.44,0,0,0,.84,1.56,3.19,3.19,0,0,0,1.24.9,4.06,4.06,0,0,0,1.51.29,4,4,0,0,0,1.5-.29,3.19,3.19,0,0,0,1.24-.9,4.44,4.44,0,0,0,.84-1.56A7.26,7.26,0,0,0,494.34,489Zm9.55-5.21a.71.71,0,0,1,.16-.15.49.49,0,0,1,.23-.05h.56l-16,22.31a.39.39,0,0,1-.36.19h-.58ZM507,500.71a7.4,7.4,0,0,1-.37,2.48,4.87,4.87,0,0,1-1,1.75,4,4,0,0,1-1.46,1,4.57,4.57,0,0,1-1.76.35,4.68,4.68,0,0,1-1.79-.35,3.92,3.92,0,0,1-1.46-1,4.84,4.84,0,0,1-1-1.75,7.4,7.4,0,0,1-.37-2.48,7.52,7.52,0,0,1,.37-2.5,4.89,4.89,0,0,1,1-1.76,3.92,3.92,0,0,1,1.46-1,4.68,4.68,0,0,1,1.79-.35,4.54,4.54,0,0,1,1.77.35,3.92,3.92,0,0,1,1.46,1,5.06,5.06,0,0,1,1,1.76A7.52,7.52,0,0,1,507,500.71Zm-.69,0a7.42,7.42,0,0,0-.31-2.29,4.59,4.59,0,0,0-.84-1.57,3.35,3.35,0,0,0-1.24-.92,4.06,4.06,0,0,0-1.51-.29,4,4,0,0,0-1.51.29,3.32,3.32,0,0,0-1.23.92,4.59,4.59,0,0,0-.84,1.57,7.42,7.42,0,0,0-.31,2.29,7.26,7.26,0,0,0,.31,2.28,4.59,4.59,0,0,0,.84,1.57,3.16,3.16,0,0,0,1.23.9,4,4,0,0,0,1.51.29,4.06,4.06,0,0,0,1.51-.29,3.19,3.19,0,0,0,1.24-.9A4.59,4.59,0,0,0,506,503,7.26,7.26,0,0,0,506.34,500.71Z"/><path d="M531.88,485.91a.31.31,0,0,1-.28.16c-.11,0-.27-.1-.48-.31a6.71,6.71,0,0,0-.87-.7,6.34,6.34,0,0,0-1.45-.69,7.23,7.23,0,0,0-4.5.08,4.87,4.87,0,0,0-1.7,1.06,4.42,4.42,0,0,0-1,1.54,4.82,4.82,0,0,0-.35,1.84,3.91,3.91,0,0,0,.49,2.05,4.56,4.56,0,0,0,1.31,1.39,8.91,8.91,0,0,0,1.85.94c.69.26,1.39.5,2.12.74s1.43.5,2.12.77a7.69,7.69,0,0,1,1.85,1,4.9,4.9,0,0,1,1.31,1.55,4.75,4.75,0,0,1,.5,2.28,7.24,7.24,0,0,1-.47,2.61,6.12,6.12,0,0,1-1.38,2.13,6.39,6.39,0,0,1-2.21,1.43,8.11,8.11,0,0,1-3,.52,9.9,9.9,0,0,1-2.05-.2,7.91,7.91,0,0,1-1.7-.58,6.78,6.78,0,0,1-1.42-.92,10.27,10.27,0,0,1-1.24-1.23l.2-.32.14-.12a.27.27,0,0,1,.17,0,.57.57,0,0,1,.31.2l.52.49a7.91,7.91,0,0,0,.77.64,6.21,6.21,0,0,0,1.06.65,7.7,7.7,0,0,0,1.43.49,7.83,7.83,0,0,0,1.83.2,6.94,6.94,0,0,0,2.61-.46,5.53,5.53,0,0,0,1.94-1.24,5.45,5.45,0,0,0,1.21-1.85,6.09,6.09,0,0,0,.41-2.26,4.09,4.09,0,0,0-.49-2.11,4.54,4.54,0,0,0-1.3-1.39,8.23,8.23,0,0,0-1.85-.94c-.7-.25-1.4-.49-2.12-.72s-1.43-.48-2.12-.75a7.21,7.21,0,0,1-1.85-1,4.77,4.77,0,0,1-1.31-1.57,5,5,0,0,1-.49-2.34,5.58,5.58,0,0,1,.41-2.11A5.3,5.3,0,0,1,522,485a6,6,0,0,1,2-1.24,7.19,7.19,0,0,1,2.67-.46,7.79,7.79,0,0,1,3,.54,7.6,7.6,0,0,1,2.44,1.7Z"/><path d="M538,493.3a8.71,8.71,0,0,1,2.63-2.37,6.35,6.35,0,0,1,3.31-.89,5.87,5.87,0,0,1,2.3.41,4.29,4.29,0,0,1,1.63,1.16,5.11,5.11,0,0,1,1,1.87,8.68,8.68,0,0,1,.33,2.49v10.1h-.85V496a8.23,8.23,0,0,0-.27-2.2,4.34,4.34,0,0,0-.84-1.66,3.72,3.72,0,0,0-1.42-1,5.07,5.07,0,0,0-2-.36,6,6,0,0,0-3.19.9,9.21,9.21,0,0,0-2.6,2.51v11.95h-.84V482.93H538Z"/><path d="M554.13,492.53a9.26,9.26,0,0,1,2.48-1.85,6.57,6.57,0,0,1,3-.64,5.47,5.47,0,0,1,2.15.39,4,4,0,0,1,1.51,1.13,4.88,4.88,0,0,1,.89,1.78,9,9,0,0,1,.28,2.36v10.37h-.28a.34.34,0,0,1-.37-.34l-.16-2.33c-.44.45-.88.85-1.31,1.21a7,7,0,0,1-1.4.92,6.78,6.78,0,0,1-1.58.59,7.75,7.75,0,0,1-1.87.21,5.09,5.09,0,0,1-1.49-.23,4,4,0,0,1-1.33-.7,3.51,3.51,0,0,1-1-1.24,4.27,4.27,0,0,1-.36-1.83,3.17,3.17,0,0,1,.6-1.89,4.84,4.84,0,0,1,1.86-1.47,12.8,12.8,0,0,1,3.2-1,30.32,30.32,0,0,1,4.61-.43V495.7a5.88,5.88,0,0,0-1-3.68,3.63,3.63,0,0,0-3-1.31,5.83,5.83,0,0,0-2.07.34,6.89,6.89,0,0,0-1.44.77,9.47,9.47,0,0,0-.92.77c-.22.23-.4.34-.52.34a.33.33,0,0,1-.28-.17Zm9.44,5.64a19.73,19.73,0,0,0-7.14,1.2c-1.54.69-2.31,1.67-2.31,2.92a3.53,3.53,0,0,0,.29,1.52,3.08,3.08,0,0,0,.79,1.07,3,3,0,0,0,1.11.62,3.94,3.94,0,0,0,1.28.2,6.89,6.89,0,0,0,1.87-.23,6.61,6.61,0,0,0,1.57-.63,7.86,7.86,0,0,0,1.34-.94,16.43,16.43,0,0,0,1.2-1.16Z"/><path d="M570.88,482.93v23.14h-.83V482.93Z"/><path d="M577.7,482.93v23.14h-.83V482.93Z"/><path d="M589.54,490a7.2,7.2,0,0,1,3,.58,6,6,0,0,1,2.2,1.65,7.26,7.26,0,0,1,1.36,2.57,12.1,12.1,0,0,1,0,6.68,7.08,7.08,0,0,1-1.36,2.55,5.84,5.84,0,0,1-2.2,1.62,8.07,8.07,0,0,1-6,0,5.84,5.84,0,0,1-2.2-1.62,7.08,7.08,0,0,1-1.36-2.55,12.1,12.1,0,0,1,0-6.68,7.26,7.26,0,0,1,1.36-2.57,6,6,0,0,1,2.2-1.65A7.2,7.2,0,0,1,589.54,490Zm0,15.55a6.3,6.3,0,0,0,2.69-.53,5.18,5.18,0,0,0,1.93-1.5,6.75,6.75,0,0,0,1.16-2.34,11.39,11.39,0,0,0,.38-3,11.52,11.52,0,0,0-.38-3.05,6.77,6.77,0,0,0-1.16-2.36,5.13,5.13,0,0,0-1.93-1.52,7,7,0,0,0-5.38,0,5.13,5.13,0,0,0-1.93,1.52,6.77,6.77,0,0,0-1.16,2.36,11.52,11.52,0,0,0-.38,3.05,11.39,11.39,0,0,0,.38,3,6.75,6.75,0,0,0,1.16,2.34,5.18,5.18,0,0,0,1.93,1.5A6.3,6.3,0,0,0,589.54,505.59Z"/><path d="M621.41,490.29l-5.34,15.78h-.56c-.12,0-.2-.07-.26-.22l-4.75-13.94a6.36,6.36,0,0,1-.19-.66c-.06.23-.12.45-.19.66l-4.82,13.94c0,.15-.13.22-.24.22h-.53l-5.36-15.78h.59a.41.41,0,0,1,.28.1.5.5,0,0,1,.12.19l4.5,13.65c.05.17.1.33.14.49s.07.31.1.47c0-.16.09-.32.14-.47s.09-.32.15-.49l4.7-13.79c.06-.15.15-.23.27-.23h.31a.3.3,0,0,1,.29.23l4.65,13.79c.06.17.11.34.15.5a4.21,4.21,0,0,1,.12.48c.05-.16.09-.32.13-.48s.09-.32.15-.5l4.49-13.65a.5.5,0,0,1,.15-.2.36.36,0,0,1,.24-.09Z"/><path d="M635.06,506.07h-.88v-22.5h.88Z"/><path d="M642,493.35a8.79,8.79,0,0,1,2.64-2.42A6.51,6.51,0,0,1,648,490a5.83,5.83,0,0,1,2.3.41,4.29,4.29,0,0,1,1.63,1.16,5.12,5.12,0,0,1,1,1.87,9.06,9.06,0,0,1,.32,2.49v10.1h-.84V496a8.21,8.21,0,0,0-.28-2.2,4.34,4.34,0,0,0-.84-1.66,3.68,3.68,0,0,0-1.41-1,5.1,5.1,0,0,0-2-.36,6,6,0,0,0-3.19.9,9,9,0,0,0-2.6,2.51v11.95h-.85V490.29h.4a.29.29,0,0,1,.32.32Z"/><path d="M659.4,506.07V491.56l-2.47-.1q-.3,0-.3-.24v-.32h2.77v-1.6a7.53,7.53,0,0,1,.41-2.61,5.43,5.43,0,0,1,1.19-1.94,5,5,0,0,1,1.87-1.2,6.88,6.88,0,0,1,2.43-.41,6,6,0,0,1,1,.09,3.63,3.63,0,0,1,.89.26l0,.39a.14.14,0,0,1-.12.09,1.37,1.37,0,0,1-.29,0l-.52-.08a4.56,4.56,0,0,0-.79-.05,6.54,6.54,0,0,0-2.14.33,4.4,4.4,0,0,0-1.65,1,4.45,4.45,0,0,0-1,1.72,7.16,7.16,0,0,0-.37,2.44v1.58h9.09v15.17h-.85V491.54h-8.23v14.53Z"/><path d="M676.13,482.93v23.14h-.83V482.93Z"/><path d="M686,506.33a3.15,3.15,0,0,1-2.3-.81,3.49,3.49,0,0,1-.84-2.6V491.54h-2.46q-.3,0-.3-.24V491l2.76-.11.25-6.08a.36.36,0,0,1,.08-.18.2.2,0,0,1,.17-.09h.35v6.35h5.22v.64h-5.22v11.35a3.52,3.52,0,0,0,.2,1.25,2.29,2.29,0,0,0,.51.86,1.85,1.85,0,0,0,.76.49,2.91,2.91,0,0,0,1,.15,3.09,3.09,0,0,0,1.1-.19,4.57,4.57,0,0,0,.8-.42,4.1,4.1,0,0,0,.55-.42c.14-.12.24-.19.3-.19a.28.28,0,0,1,.18.1l.21.3a3.7,3.7,0,0,1-.64.61,4.12,4.12,0,0,1-.79.47,4.28,4.28,0,0,1-.89.31A3.81,3.81,0,0,1,686,506.33Z"/><path d="M693.44,494.52a10.55,10.55,0,0,1,.84-1.91,5.81,5.81,0,0,1,1.11-1.4,4.32,4.32,0,0,1,1.43-.88,5.37,5.37,0,0,1,1.81-.29,6.26,6.26,0,0,1,1,.07,2.43,2.43,0,0,1,.87.3l-.09.49a.24.24,0,0,1-.23.18,1.79,1.79,0,0,1-.53-.12,3.61,3.61,0,0,0-1.07-.12,4.69,4.69,0,0,0-1.77.31,4.18,4.18,0,0,0-1.37.92,6.13,6.13,0,0,0-1.07,1.52,13.51,13.51,0,0,0-.84,2.13v10.35h-.85V490.29H693c.21,0,.33.12.34.36Z"/><path d="M702.92,492.53a9,9,0,0,1,2.48-1.85,6.54,6.54,0,0,1,3-.64,5.41,5.41,0,0,1,2.14.39,3.88,3.88,0,0,1,1.51,1.13,4.73,4.73,0,0,1,.89,1.78,9,9,0,0,1,.29,2.36v10.37h-.29a.34.34,0,0,1-.37-.34l-.16-2.33a16,16,0,0,1-1.31,1.21,7.28,7.28,0,0,1-1.39.92,6.86,6.86,0,0,1-1.59.59,7.75,7.75,0,0,1-1.87.21,5.09,5.09,0,0,1-1.49-.23,3.81,3.81,0,0,1-1.32-.7,3.42,3.42,0,0,1-1-1.24,4.27,4.27,0,0,1-.36-1.83,3.17,3.17,0,0,1,.6-1.89,4.81,4.81,0,0,1,1.87-1.47,12.67,12.67,0,0,1,3.2-1,30.19,30.19,0,0,1,4.61-.43V495.7a5.88,5.88,0,0,0-1-3.68,3.63,3.63,0,0,0-3-1.31,5.73,5.73,0,0,0-2.06.34,6.42,6.42,0,0,0-1.44.77,8.39,8.39,0,0,0-.92.77c-.23.23-.41.34-.52.34a.34.34,0,0,1-.29-.17Zm9.44,5.64a19.75,19.75,0,0,0-7.15,1.2c-1.54.69-2.31,1.67-2.31,2.92a3.52,3.52,0,0,0,.3,1.52,2.94,2.94,0,0,0,.78,1.07,3,3,0,0,0,1.11.62,4,4,0,0,0,1.28.2,6.84,6.84,0,0,0,1.87-.23,6.61,6.61,0,0,0,1.57-.63,8.36,8.36,0,0,0,1.35-.94c.41-.37.81-.75,1.2-1.16Z"/><path d="M730.75,506.07h-.83V491.54h-9.68v11.35a3.52,3.52,0,0,0,.2,1.25,2.29,2.29,0,0,0,.51.86,1.85,1.85,0,0,0,.76.49,2.91,2.91,0,0,0,.95.15,3,3,0,0,0,1.09-.19,4.34,4.34,0,0,0,.81-.42,4.1,4.1,0,0,0,.55-.42c.14-.12.24-.19.3-.19a.28.28,0,0,1,.18.1l.2.3a3.32,3.32,0,0,1-.63.61,4.12,4.12,0,0,1-.79.47,4.28,4.28,0,0,1-.89.31,3.81,3.81,0,0,1-1,.12,3.15,3.15,0,0,1-2.3-.81,3.49,3.49,0,0,1-.83-2.6V491.54h-2.47q-.3,0-.3-.24V491l2.78-.12.23-6.07a.36.36,0,0,1,.08-.18.2.2,0,0,1,.17-.09h.35v6.35h10.51Zm.73-21.69a.9.9,0,0,1-.1.39,1.24,1.24,0,0,1-.25.35,1.21,1.21,0,0,1-.35.24,1,1,0,0,1-.41.09,1,1,0,0,1-.42-.09,1.09,1.09,0,0,1-.35-.24.92.92,0,0,1-.24-.35.89.89,0,0,1-.09-.39,1.07,1.07,0,0,1,.33-.78,1,1,0,0,1,.77-.33,1,1,0,0,1,.41.09,1.21,1.21,0,0,1,.35.24,1.24,1.24,0,0,1,.25.35A1,1,0,0,1,731.48,484.38Z"/><path d="M742.63,490a7.2,7.2,0,0,1,3,.58,6.11,6.11,0,0,1,2.2,1.65,7.26,7.26,0,0,1,1.36,2.57,12.36,12.36,0,0,1,0,6.68,7.08,7.08,0,0,1-1.36,2.55,5.92,5.92,0,0,1-2.2,1.62,8.1,8.1,0,0,1-6,0,5.92,5.92,0,0,1-2.2-1.62,7.24,7.24,0,0,1-1.36-2.55,12.36,12.36,0,0,1,0-6.68,7.42,7.42,0,0,1,1.36-2.57,6.11,6.11,0,0,1,2.2-1.65A7.25,7.25,0,0,1,742.63,490Zm0,15.55a6.3,6.3,0,0,0,2.69-.53,5.14,5.14,0,0,0,1.92-1.5,6.42,6.42,0,0,0,1.16-2.34,11,11,0,0,0,.39-3,11.11,11.11,0,0,0-.39-3.05,6.44,6.44,0,0,0-1.16-2.36,5.09,5.09,0,0,0-1.92-1.52,7,7,0,0,0-5.38,0,5.13,5.13,0,0,0-1.93,1.52,6.6,6.6,0,0,0-1.16,2.36,11.12,11.12,0,0,0-.38,3.05,11,11,0,0,0,.38,3,6.58,6.58,0,0,0,1.16,2.34,5.18,5.18,0,0,0,1.93,1.5A6.27,6.27,0,0,0,742.63,505.59Z"/><path d="M755.12,493.35a8.88,8.88,0,0,1,2.63-2.42,6.58,6.58,0,0,1,3.34-.89,5.83,5.83,0,0,1,2.3.41,4.29,4.29,0,0,1,1.63,1.16,5.12,5.12,0,0,1,1,1.87,9.06,9.06,0,0,1,.32,2.49v10.1h-.85V496a8.23,8.23,0,0,0-.27-2.2,4.34,4.34,0,0,0-.84-1.66,3.76,3.76,0,0,0-1.41-1,5.14,5.14,0,0,0-2-.36,6,6,0,0,0-3.2.9,9,9,0,0,0-2.59,2.51v11.95h-.85V490.29h.4a.29.29,0,0,1,.32.32Z"/></g><g id="Forty_Percent_Evapotranspiration" data-name="Forty Percent Evapotranspiration"><rect class="cls-6" x="6.64" y="253.77" width="406.38" height="46.83"/><path d="M93.05,279.86v.4c0,.18-.1.27-.32.27H88.56v6.76H87.8v-6.76h-11a.49.49,0,0,1-.27-.06.33.33,0,0,1-.11-.18l-.08-.38,11.5-15.15h.68v15.1Zm-5.25,0v-13.1c0-.14,0-.28,0-.42s0-.28.05-.43L77.32,279.86Z"/><path d="M111.42,276a18.42,18.42,0,0,1-.63,5.12,10.79,10.79,0,0,1-1.72,3.57,7,7,0,0,1-2.55,2.09,7.13,7.13,0,0,1-3.1.69,7.21,7.21,0,0,1-3.11-.69,7,7,0,0,1-2.54-2.09,10.79,10.79,0,0,1-1.72-3.57,21.08,21.08,0,0,1,0-10.23,11,11,0,0,1,1.72-3.6,7,7,0,0,1,2.54-2.11,7.21,7.21,0,0,1,3.11-.69,6.93,6.93,0,0,1,5.65,2.8,11,11,0,0,1,1.72,3.6A18.4,18.4,0,0,1,111.42,276Zm-.88,0a18.24,18.24,0,0,0-.57-4.87,10.26,10.26,0,0,0-1.54-3.36,6.23,6.23,0,0,0-2.27-1.95,6.39,6.39,0,0,0-5.49,0,6.26,6.26,0,0,0-2.28,1.95,10.48,10.48,0,0,0-1.55,3.36,21.09,21.09,0,0,0,0,9.74,10.16,10.16,0,0,0,1.55,3.34,6.18,6.18,0,0,0,10,0,10,10,0,0,0,1.54-3.34A18.24,18.24,0,0,0,110.54,276Z"/><path d="M123.58,270.2a7.44,7.44,0,0,1-.37,2.48,5.27,5.27,0,0,1-1,1.75,4,4,0,0,1-1.46,1,4.52,4.52,0,0,1-1.76.34,4.64,4.64,0,0,1-1.79-.34,4.13,4.13,0,0,1-1.46-1,5.09,5.09,0,0,1-1-1.75,7.72,7.72,0,0,1-.36-2.48,7.87,7.87,0,0,1,.36-2.51,5.23,5.23,0,0,1,1-1.76,4,4,0,0,1,1.46-1.05,4.73,4.73,0,0,1,3.57,0,3.92,3.92,0,0,1,1.45,1.05,5.08,5.08,0,0,1,1,1.76A7.87,7.87,0,0,1,123.58,270.2Zm-.69,0a7.38,7.38,0,0,0-.31-2.29,4.73,4.73,0,0,0-.84-1.58,3.33,3.33,0,0,0-1.24-.91,4.05,4.05,0,0,0-3,0,3.33,3.33,0,0,0-1.24.91,4.73,4.73,0,0,0-.84,1.58,8.58,8.58,0,0,0,0,4.57,4.63,4.63,0,0,0,.84,1.56,3.27,3.27,0,0,0,1.24.89,4.05,4.05,0,0,0,3,0,3.27,3.27,0,0,0,1.24-.89,4.63,4.63,0,0,0,.84-1.56A7.35,7.35,0,0,0,122.89,270.2Zm9.55-5.22a.94.94,0,0,1,.16-.14.49.49,0,0,1,.23,0h.56l-16,22.3a.4.4,0,0,1-.36.2h-.58Zm3.14,16.95a7.44,7.44,0,0,1-.37,2.48,5.21,5.21,0,0,1-1,1.75,4.13,4.13,0,0,1-1.46,1,4.56,4.56,0,0,1-1.76.34,4.67,4.67,0,0,1-1.79-.34,4,4,0,0,1-1.46-1,5,5,0,0,1-1-1.75,7.72,7.72,0,0,1-.36-2.48,7.87,7.87,0,0,1,.36-2.51,5,5,0,0,1,1-1.76,4,4,0,0,1,1.46-1,4.67,4.67,0,0,1,1.79-.34,4.54,4.54,0,0,1,1.77.34,4,4,0,0,1,1.46,1,5.32,5.32,0,0,1,1,1.76A7.59,7.59,0,0,1,135.58,281.93Zm-.69,0a7.38,7.38,0,0,0-.31-2.29,4.64,4.64,0,0,0-.84-1.58,3.33,3.33,0,0,0-1.24-.91,3.88,3.88,0,0,0-1.51-.3,3.8,3.8,0,0,0-1.51.3,3.29,3.29,0,0,0-1.23.91,4.64,4.64,0,0,0-.84,1.58,8.58,8.58,0,0,0,0,4.57,4.63,4.63,0,0,0,.84,1.56,3.09,3.09,0,0,0,1.23.91A4,4,0,0,0,131,287a4.06,4.06,0,0,0,1.51-.29,3.12,3.12,0,0,0,1.24-.91,4.63,4.63,0,0,0,.84-1.56A7.35,7.35,0,0,0,134.89,281.93Z"/><path d="M163.11,286.53l0,.76H149.8v-22.5h13.28v.75h-12.4v10h10.45v.74H150.68v10.28Z"/><path d="M178.83,271.51,172,287.29h-.7l-6.79-15.78h.63a.3.3,0,0,1,.25.1.38.38,0,0,1,.13.19l5.86,13.65a4,4,0,0,1,.16.45c0,.16.08.31.11.46,0-.15.09-.3.13-.46a2.69,2.69,0,0,1,.16-.45l5.85-13.65a.72.72,0,0,1,.16-.21.41.41,0,0,1,.24-.08Z"/><path d="M181.67,273.75a9.31,9.31,0,0,1,2.48-1.86,6.71,6.71,0,0,1,3-.64,5.43,5.43,0,0,1,2.15.4,3.86,3.86,0,0,1,1.51,1.12,4.85,4.85,0,0,1,.89,1.79,9,9,0,0,1,.29,2.36v10.37h-.29a.35.35,0,0,1-.37-.34l-.16-2.34a16.22,16.22,0,0,1-1.31,1.22,7.78,7.78,0,0,1-1.39.92,6.84,6.84,0,0,1-1.59.58,7.75,7.75,0,0,1-1.87.21,5.07,5.07,0,0,1-1.49-.22,4,4,0,0,1-1.33-.71,3.51,3.51,0,0,1-1-1.24,4.2,4.2,0,0,1-.36-1.83,3.22,3.22,0,0,1,.6-1.89,4.79,4.79,0,0,1,1.87-1.46,12.52,12.52,0,0,1,3.2-1,29.06,29.06,0,0,1,4.6-.42v-1.87a5.86,5.86,0,0,0-1-3.68,3.61,3.61,0,0,0-3-1.31,5.52,5.52,0,0,0-2.06.34,6.42,6.42,0,0,0-1.44.77,7.4,7.4,0,0,0-.92.77c-.23.23-.41.34-.52.34a.35.35,0,0,1-.29-.18Zm9.44,5.63a20.18,20.18,0,0,0-7.14,1.2c-1.54.7-2.31,1.67-2.31,2.93A3.71,3.71,0,0,0,182,285a3,3,0,0,0,.79,1.06,2.92,2.92,0,0,0,1.11.63,4.28,4.28,0,0,0,1.28.2,7.26,7.26,0,0,0,1.87-.23,7.08,7.08,0,0,0,1.57-.64,7.34,7.34,0,0,0,1.34-.94,16.29,16.29,0,0,0,1.2-1.15Z"/><path d="M198.23,274.58a8.34,8.34,0,0,1,2.52-2.44,6.17,6.17,0,0,1,3.24-.89,5.64,5.64,0,0,1,4.62,2q1.62,2,1.62,6.06a11.09,11.09,0,0,1-.44,3.22,7.62,7.62,0,0,1-1.31,2.59,6.12,6.12,0,0,1-2.16,1.74,6.7,6.7,0,0,1-3,.63,5.71,5.71,0,0,1-5.07-2.61V293h-.85V271.51h.4a.29.29,0,0,1,.32.32Zm0,9.43a5.94,5.94,0,0,0,2.17,2.18,5.86,5.86,0,0,0,2.77.63,6,6,0,0,0,2.7-.57,5.24,5.24,0,0,0,1.92-1.57,6.92,6.92,0,0,0,1.16-2.39,11.28,11.28,0,0,0,.38-3q0-3.75-1.42-5.57a5,5,0,0,0-4.13-1.8,5.55,5.55,0,0,0-3.08.91,8.3,8.3,0,0,0-2.47,2.53Z"/><path d="M220.94,271.25a7.2,7.2,0,0,1,3,.59,6.11,6.11,0,0,1,2.2,1.65,7.21,7.21,0,0,1,1.36,2.56,11.35,11.35,0,0,1,.47,3.35,11.12,11.12,0,0,1-.47,3.33,7.21,7.21,0,0,1-1.36,2.56,6,6,0,0,1-2.2,1.62,8.1,8.1,0,0,1-6,0,6,6,0,0,1-2.2-1.62,7.37,7.37,0,0,1-1.36-2.56,11.12,11.12,0,0,1-.46-3.33,11.35,11.35,0,0,1,.46-3.35,7.37,7.37,0,0,1,1.36-2.56,6.11,6.11,0,0,1,2.2-1.65A7.25,7.25,0,0,1,220.94,271.25Zm0,15.56a6.46,6.46,0,0,0,2.69-.53,5.07,5.07,0,0,0,1.92-1.51,6.38,6.38,0,0,0,1.16-2.33,11,11,0,0,0,.39-3,11.24,11.24,0,0,0-.39-3.06,6.6,6.6,0,0,0-1.16-2.36,5.3,5.3,0,0,0-1.92-1.52,7.09,7.09,0,0,0-5.38,0,5.33,5.33,0,0,0-1.93,1.52,6.77,6.77,0,0,0-1.16,2.36,11.65,11.65,0,0,0-.38,3.06,11.44,11.44,0,0,0,.38,3,6.54,6.54,0,0,0,1.16,2.33,5.1,5.1,0,0,0,1.93,1.51A6.42,6.42,0,0,0,220.94,286.81Z"/><path d="M236.39,287.54a3.15,3.15,0,0,1-2.3-.81,3.5,3.5,0,0,1-.83-2.6V272.76h-2.47q-.3,0-.3-.24v-.29l2.77-.11.24-6.08a.46.46,0,0,1,.08-.19.21.21,0,0,1,.17-.08h.36v6.35h5.21v.64h-5.21V284.1a3.63,3.63,0,0,0,.19,1.26,2.44,2.44,0,0,0,.51.85,1.81,1.81,0,0,0,.76.49,2.91,2.91,0,0,0,1,.15,2.88,2.88,0,0,0,1.1-.19,5.09,5.09,0,0,0,.81-.41,4.66,4.66,0,0,0,.54-.42c.14-.13.24-.19.3-.19a.26.26,0,0,1,.18.09l.21.31a3.65,3.65,0,0,1-.63.61,4.21,4.21,0,0,1-.8.47,4.46,4.46,0,0,1-.89.31A4.33,4.33,0,0,1,236.39,287.54Z"/><path d="M243.87,275.73a10.07,10.07,0,0,1,.83-1.9,6.07,6.07,0,0,1,1.11-1.41,4.47,4.47,0,0,1,1.43-.87,5.17,5.17,0,0,1,1.81-.3,6.19,6.19,0,0,1,.95.08,2.18,2.18,0,0,1,.87.29l-.09.5a.22.22,0,0,1-.23.17,1.93,1.93,0,0,1-.53-.12,3.61,3.61,0,0,0-1.07-.12,4.6,4.6,0,0,0-1.76.32,3.85,3.85,0,0,0-1.38.92,5.69,5.69,0,0,0-1.06,1.52,13,13,0,0,0-.85,2.12v10.36h-.85V271.51h.38c.22,0,.33.12.34.35Z"/><path d="M253.34,273.75a9.15,9.15,0,0,1,2.48-1.86,6.68,6.68,0,0,1,3-.64,5.41,5.41,0,0,1,2.14.4,3.86,3.86,0,0,1,1.51,1.12,4.85,4.85,0,0,1,.89,1.79,9,9,0,0,1,.29,2.36v10.37h-.29A.36.36,0,0,1,263,287l-.16-2.34a14.7,14.7,0,0,1-1.31,1.22,7.78,7.78,0,0,1-1.39.92,6.93,6.93,0,0,1-1.58.58,7.84,7.84,0,0,1-1.88.21,5,5,0,0,1-1.48-.22,3.88,3.88,0,0,1-1.33-.71,3.4,3.4,0,0,1-.95-1.24,4.2,4.2,0,0,1-.36-1.83,3.22,3.22,0,0,1,.6-1.89,4.83,4.83,0,0,1,1.86-1.46,12.65,12.65,0,0,1,3.2-1,29.19,29.19,0,0,1,4.61-.42v-1.87a5.8,5.8,0,0,0-1-3.68,3.59,3.59,0,0,0-3-1.31,5.56,5.56,0,0,0-2.06.34,6.42,6.42,0,0,0-1.44.77,8.22,8.22,0,0,0-.92.77c-.23.23-.4.34-.52.34a.36.36,0,0,1-.29-.18Zm9.44,5.63a20.29,20.29,0,0,0-7.15,1.2c-1.54.7-2.31,1.67-2.31,2.93a3.55,3.55,0,0,0,.3,1.52,3,3,0,0,0,.78,1.06,3.07,3.07,0,0,0,1.11.63,4.33,4.33,0,0,0,1.28.2,7.33,7.33,0,0,0,1.88-.23,7.2,7.2,0,0,0,1.56-.64,7.77,7.77,0,0,0,1.35-.94c.41-.36.81-.75,1.2-1.15Z"/><path d="M269.9,274.57a8.52,8.52,0,0,1,2.63-2.42,6.46,6.46,0,0,1,3.34-.9,6,6,0,0,1,2.29.41,4.14,4.14,0,0,1,1.63,1.17,5.16,5.16,0,0,1,1,1.86,8.75,8.75,0,0,1,.33,2.5v10.1h-.85v-10.1A8.31,8.31,0,0,0,280,275a4.44,4.44,0,0,0-.84-1.65,3.62,3.62,0,0,0-1.42-1,5.07,5.07,0,0,0-2-.36,6,6,0,0,0-3.19.9,9,9,0,0,0-2.6,2.5v12h-.85V271.51h.4a.29.29,0,0,1,.32.32Z"/><path d="M294.94,273.13a.28.28,0,0,1-.24.14.72.72,0,0,1-.41-.22,5.59,5.59,0,0,0-.73-.46,6.66,6.66,0,0,0-1.16-.46,5.66,5.66,0,0,0-1.72-.22,5,5,0,0,0-1.72.28,4.59,4.59,0,0,0-1.33.74,3.23,3.23,0,0,0-.87,1.09,3,3,0,0,0-.3,1.3,2.24,2.24,0,0,0,.39,1.34,3.17,3.17,0,0,0,1,.92,7,7,0,0,0,1.46.64l1.66.53c.57.18,1.12.37,1.66.57a6.27,6.27,0,0,1,1.46.75,3.59,3.59,0,0,1,1,1.1,3.13,3.13,0,0,1,.39,1.62,4.81,4.81,0,0,1-.35,1.86,4.32,4.32,0,0,1-1,1.51,4.77,4.77,0,0,1-1.66,1,6.32,6.32,0,0,1-2.25.37,8,8,0,0,1-1.54-.13,6.36,6.36,0,0,1-1.28-.39,5.57,5.57,0,0,1-1.1-.6,8.91,8.91,0,0,1-1-.78l.2-.27a.66.66,0,0,1,.12-.12.32.32,0,0,1,.19,0,.76.76,0,0,1,.45.26,5.75,5.75,0,0,0,.81.58,5.82,5.82,0,0,0,1.27.59,6,6,0,0,0,1.89.26,5.52,5.52,0,0,0,1.94-.31,4,4,0,0,0,1.41-.86,3.42,3.42,0,0,0,.85-1.27,4.17,4.17,0,0,0,.29-1.54,2.49,2.49,0,0,0-.39-1.44,3.3,3.3,0,0,0-1-1,7,7,0,0,0-1.46-.66l-1.66-.53c-.57-.17-1.12-.36-1.67-.55a6.58,6.58,0,0,1-1.45-.74,3.57,3.57,0,0,1-1-1.08,3,3,0,0,1-.39-1.6,3.48,3.48,0,0,1,.36-1.54,4,4,0,0,1,1-1.32,5.06,5.06,0,0,1,1.58-.9,6,6,0,0,1,2.05-.34,7,7,0,0,1,2.43.39,6.16,6.16,0,0,1,2,1.21Z"/><path d="M300.84,274.58a8.12,8.12,0,0,1,2.52-2.44,6.17,6.17,0,0,1,3.24-.89,5.65,5.65,0,0,1,4.62,2q1.62,2,1.62,6.06a11.44,11.44,0,0,1-.44,3.22,7.62,7.62,0,0,1-1.31,2.59,6.12,6.12,0,0,1-2.16,1.74,6.73,6.73,0,0,1-3,.63,5.74,5.74,0,0,1-5.08-2.61V293H300V271.51h.39c.21,0,.31.11.32.32Zm0,9.43a6,6,0,0,0,2.18,2.18,5.86,5.86,0,0,0,2.77.63,6,6,0,0,0,2.7-.57,5.24,5.24,0,0,0,1.92-1.57,6.9,6.9,0,0,0,1.15-2.39,10.87,10.87,0,0,0,.39-3q0-3.75-1.43-5.57a5,5,0,0,0-4.13-1.8,5.57,5.57,0,0,0-3.08.91,8.54,8.54,0,0,0-2.47,2.53Z"/><path d="M319.22,265.81a1,1,0,0,1-.09.42,1.42,1.42,0,0,1-.25.34.92.92,0,0,1-.35.24,1,1,0,0,1-.41.09,1.07,1.07,0,0,1-.78-.33,1.05,1.05,0,0,1-.32-.76,1.09,1.09,0,0,1,.32-.77,1.07,1.07,0,0,1,.78-.33,1,1,0,0,1,.41.09,1.21,1.21,0,0,1,.35.24,1.48,1.48,0,0,1,.25.35A1,1,0,0,1,319.22,265.81Zm-.68,5.7v15.78h-.84V271.51Z"/><path d="M325.18,275.73a10.07,10.07,0,0,1,.83-1.9,6.07,6.07,0,0,1,1.11-1.41,4.47,4.47,0,0,1,1.43-.87,5.13,5.13,0,0,1,1.81-.3,6.19,6.19,0,0,1,.95.08,2.18,2.18,0,0,1,.87.29l-.09.5a.23.23,0,0,1-.23.17,1.93,1.93,0,0,1-.53-.12,3.61,3.61,0,0,0-1.07-.12,4.6,4.6,0,0,0-1.76.32,3.85,3.85,0,0,0-1.38.92,6.2,6.2,0,0,0-1.07,1.52,14,14,0,0,0-.84,2.12v10.36h-.85V271.51h.38c.22,0,.33.12.34.35Z"/><path d="M334.65,273.75a9.15,9.15,0,0,1,2.48-1.86,6.68,6.68,0,0,1,3-.64,5.41,5.41,0,0,1,2.14.4,3.86,3.86,0,0,1,1.51,1.12,4.85,4.85,0,0,1,.89,1.79,9,9,0,0,1,.29,2.36v10.37h-.29a.35.35,0,0,1-.37-.34l-.16-2.34a14.7,14.7,0,0,1-1.31,1.22,7.78,7.78,0,0,1-1.39.92,6.84,6.84,0,0,1-1.59.58,7.7,7.7,0,0,1-1.87.21,5,5,0,0,1-1.48-.22,3.79,3.79,0,0,1-1.33-.71,3.4,3.4,0,0,1-.95-1.24,4.2,4.2,0,0,1-.37-1.83,3.23,3.23,0,0,1,.61-1.89,4.75,4.75,0,0,1,1.86-1.46,12.65,12.65,0,0,1,3.2-1,29.19,29.19,0,0,1,4.61-.42v-1.87a5.8,5.8,0,0,0-1-3.68,3.59,3.59,0,0,0-3-1.31,5.56,5.56,0,0,0-2.06.34,6.42,6.42,0,0,0-1.44.77,7.4,7.4,0,0,0-.92.77c-.23.23-.4.34-.52.34a.36.36,0,0,1-.29-.18Zm9.44,5.63a20.24,20.24,0,0,0-7.15,1.2c-1.54.7-2.31,1.67-2.31,2.93a3.55,3.55,0,0,0,.3,1.52,3.14,3.14,0,0,0,.78,1.06,3.07,3.07,0,0,0,1.11.63,4.33,4.33,0,0,0,1.28.2,7.2,7.2,0,0,0,1.87-.23,7.08,7.08,0,0,0,1.57-.64,7.77,7.77,0,0,0,1.35-.94c.41-.36.81-.75,1.2-1.15Z"/><path d="M362.49,287.29h-.84V272.76H352V284.1a3.62,3.62,0,0,0,.2,1.26,2.17,2.17,0,0,0,.51.85,1.75,1.75,0,0,0,.76.49,2.91,2.91,0,0,0,.95.15,2.88,2.88,0,0,0,1.1-.19,4.57,4.57,0,0,0,.8-.41,4.1,4.1,0,0,0,.55-.42c.14-.13.24-.19.3-.19a.28.28,0,0,1,.18.09l.21.31a3.72,3.72,0,0,1-.64.61,4.12,4.12,0,0,1-.79.47,4.69,4.69,0,0,1-.89.31,4.33,4.33,0,0,1-.95.11,3.15,3.15,0,0,1-2.3-.81,3.45,3.45,0,0,1-.83-2.6V272.76h-2.47q-.3,0-.3-.24v-.29l2.78-.13.23-6.06a.36.36,0,0,1,.08-.19.21.21,0,0,1,.17-.08H352v6.35h10.52Zm.72-21.7a1,1,0,0,1-.1.4,1.2,1.2,0,0,1-.25.34.92.92,0,0,1-.35.24,1,1,0,0,1-.41.09,1,1,0,0,1-.42-.09.85.85,0,0,1-.35-.24.88.88,0,0,1-.24-.34.93.93,0,0,1-.09-.4,1.11,1.11,0,0,1,1.1-1.1,1.15,1.15,0,0,1,.41.08,1.21,1.21,0,0,1,.35.24,1.29,1.29,0,0,1,.25.36A1,1,0,0,1,363.21,265.59Z"/><path d="M374.36,271.25a7.2,7.2,0,0,1,3,.59,6,6,0,0,1,2.2,1.65,7.21,7.21,0,0,1,1.36,2.56,11.35,11.35,0,0,1,.47,3.35,11.12,11.12,0,0,1-.47,3.33,7.21,7.21,0,0,1-1.36,2.56,6,6,0,0,1-2.2,1.62,8.07,8.07,0,0,1-6,0,6,6,0,0,1-2.21-1.62,7.37,7.37,0,0,1-1.36-2.56,11.12,11.12,0,0,1-.46-3.33,11.35,11.35,0,0,1,.46-3.35,7.37,7.37,0,0,1,1.36-2.56,6.06,6.06,0,0,1,2.21-1.65A7.17,7.17,0,0,1,374.36,271.25Zm0,15.56a6.46,6.46,0,0,0,2.69-.53,5.07,5.07,0,0,0,1.92-1.51,6.38,6.38,0,0,0,1.16-2.33,11,11,0,0,0,.39-3,11.24,11.24,0,0,0-.39-3.06A6.6,6.6,0,0,0,379,274a5.3,5.3,0,0,0-1.92-1.52,7.09,7.09,0,0,0-5.38,0,5.33,5.33,0,0,0-1.93,1.52,6.77,6.77,0,0,0-1.16,2.36,11.65,11.65,0,0,0-.38,3.06,11.44,11.44,0,0,0,.38,3,6.54,6.54,0,0,0,1.16,2.33,5.1,5.1,0,0,0,1.93,1.51A6.42,6.42,0,0,0,374.36,286.81Z"/><path d="M386.85,274.57a8.66,8.66,0,0,1,2.64-2.42,6.43,6.43,0,0,1,3.33-.9,6,6,0,0,1,2.3.41,4.21,4.21,0,0,1,1.63,1.17,5.16,5.16,0,0,1,1,1.86,8.76,8.76,0,0,1,.32,2.5v10.1h-.84v-10.1a7.9,7.9,0,0,0-.28-2.21,4.29,4.29,0,0,0-.84-1.65,3.66,3.66,0,0,0-1.41-1,5.1,5.1,0,0,0-2-.36,6,6,0,0,0-3.19.9,8.92,8.92,0,0,0-2.6,2.5v12H386V271.51h.4a.29.29,0,0,1,.32.32Z"/><polygon class="cls-7" points="17.84 271.33 17.84 292.73 24.98 292.73 24.98 271.33 30.16 271.33 21.57 260.1 12.98 271.33 17.84 271.33"/><polygon class="cls-7" points="36.65 271.33 36.65 292.73 43.78 292.73 43.78 271.33 48.97 271.33 40.38 260.1 31.79 271.33 36.65 271.33"/></g><g id="Twentyfive_Deep_Infiltration" data-name="Twentyfive Deep Infiltration"><rect class="cls-6" x="69.46" y="572.57" width="401.69" height="46.83"/><path d="M165,608.79a.28.28,0,0,1,.31.31v.48H151.1v-.31a.59.59,0,0,1,.05-.23.86.86,0,0,1,.14-.18l7.93-8c.66-.66,1.26-1.31,1.83-1.94a18,18,0,0,0,1.49-1.91,9.52,9.52,0,0,0,1-2,6.39,6.39,0,0,0,.37-2.2,5.52,5.52,0,0,0-.46-2.36,4.66,4.66,0,0,0-1.23-1.64,5,5,0,0,0-1.76-1,6.9,6.9,0,0,0-2-.3,6.2,6.2,0,0,0-2.16.36,5.73,5.73,0,0,0-1.75,1,5.57,5.57,0,0,0-1.25,1.55,6.78,6.78,0,0,0-.68,2c-.07.28-.23.4-.48.37l-.39,0a7.64,7.64,0,0,1,.75-2.49,6.38,6.38,0,0,1,1.45-1.86,6.52,6.52,0,0,1,2-1.18,7.57,7.57,0,0,1,2.52-.4,7.73,7.73,0,0,1,2.35.35,5.58,5.58,0,0,1,2,1.08,5.15,5.15,0,0,1,1.41,1.85,6.3,6.3,0,0,1,.53,2.67,6.83,6.83,0,0,1-.4,2.38,9.78,9.78,0,0,1-1.08,2.11,15.76,15.76,0,0,1-1.57,2q-.9,1-1.89,2l-7.59,7.75.91-.11c.32,0,.67,0,1,0Z"/><path d="M172.14,596.22a17.54,17.54,0,0,1,2.18-.44,15.18,15.18,0,0,1,2-.14,8.84,8.84,0,0,1,3.08.5,6.07,6.07,0,0,1,2.22,1.38,5.83,5.83,0,0,1,1.35,2.11,7.8,7.8,0,0,1,.45,2.7,8,8,0,0,1-.6,3.17,7,7,0,0,1-1.66,2.36,7.38,7.38,0,0,1-2.42,1.47,8.34,8.34,0,0,1-2.92.5,9.54,9.54,0,0,1-1.71-.15,10.07,10.07,0,0,1-1.53-.41,8.9,8.9,0,0,1-1.32-.58,9.62,9.62,0,0,1-1.05-.66l.24-.32a.31.31,0,0,1,.3-.16,1.32,1.32,0,0,1,.55.24,8.32,8.32,0,0,0,1,.52,11.93,11.93,0,0,0,1.51.52,7.82,7.82,0,0,0,2,.24,7.67,7.67,0,0,0,2.6-.44,6.26,6.26,0,0,0,2.13-1.3,6,6,0,0,0,1.44-2.11,8,8,0,0,0,.15-5.3,5,5,0,0,0-3.14-3.14,8,8,0,0,0-2.83-.45,18,18,0,0,0-4.32.62l-.56-.19,1.71-9.68h9.84v.35a.41.41,0,0,1-.12.3.52.52,0,0,1-.38.12h-8.7Z"/><path d="M197.06,592.49a7.68,7.68,0,0,1-.36,2.48,5.12,5.12,0,0,1-1,1.75,3.89,3.89,0,0,1-1.45,1,4.68,4.68,0,0,1-3.55,0,3.92,3.92,0,0,1-1.46-1,4.93,4.93,0,0,1-1-1.75,7.68,7.68,0,0,1-.36-2.48,7.8,7.8,0,0,1,.36-2.5,5,5,0,0,1,1-1.77,4,4,0,0,1,1.46-1.05,4.6,4.6,0,0,1,1.79-.34,4.54,4.54,0,0,1,1.77.34,4,4,0,0,1,1.46,1.05,5,5,0,0,1,1,1.77A7.8,7.8,0,0,1,197.06,592.49Zm-.68,0a7.36,7.36,0,0,0-.32-2.29,4.27,4.27,0,0,0-.84-1.57,3.27,3.27,0,0,0-1.24-.92,4,4,0,0,0-3,0,3.27,3.27,0,0,0-1.24.92,4.27,4.27,0,0,0-.84,1.57,7.36,7.36,0,0,0-.32,2.29,7.24,7.24,0,0,0,.32,2.28,4.3,4.3,0,0,0,.84,1.56,3.22,3.22,0,0,0,1.24.9,4.16,4.16,0,0,0,3,0,3.22,3.22,0,0,0,1.24-.9,4.3,4.3,0,0,0,.84-1.56A7.24,7.24,0,0,0,196.38,592.49Zm9.55-5.22a.52.52,0,0,1,.16-.14.45.45,0,0,1,.22,0h.56l-16,22.31a.44.44,0,0,1-.37.19h-.58Zm3.13,17a7.72,7.72,0,0,1-.36,2.48,5.12,5.12,0,0,1-1,1.75,4.16,4.16,0,0,1-1.47,1,4.52,4.52,0,0,1-1.76.34,4.62,4.62,0,0,1-1.78-.34,4.07,4.07,0,0,1-1.47-1,5.09,5.09,0,0,1-1-1.75,7.72,7.72,0,0,1-.36-2.48,7.87,7.87,0,0,1,.36-2.51,5.14,5.14,0,0,1,1-1.76,4.07,4.07,0,0,1,1.47-1,4.83,4.83,0,0,1,3.56,0,4,4,0,0,1,1.45,1,5.17,5.17,0,0,1,1,1.76A7.87,7.87,0,0,1,209.06,604.22Zm-.68,0a7.36,7.36,0,0,0-.32-2.29,4.32,4.32,0,0,0-.84-1.58,3.25,3.25,0,0,0-1.24-.91,4,4,0,0,0-1.51-.29,4,4,0,0,0-1.5.29,3.29,3.29,0,0,0-1.23.91,4.32,4.32,0,0,0-.84,1.58,8.32,8.32,0,0,0,0,4.57,4.35,4.35,0,0,0,.84,1.57,3.16,3.16,0,0,0,1.23.9,4,4,0,0,0,1.5.29A4,4,0,0,0,206,609a3.12,3.12,0,0,0,1.24-.9,4.35,4.35,0,0,0,.84-1.57A7.33,7.33,0,0,0,208.38,604.22Z"/><path d="M241.93,598.33a13.68,13.68,0,0,1-.77,4.73,9.9,9.9,0,0,1-2.16,3.53,9.28,9.28,0,0,1-3.33,2.22,11.51,11.51,0,0,1-4.27.77h-8.11v-22.5h8.11a11.51,11.51,0,0,1,4.27.77,9.28,9.28,0,0,1,3.33,2.22,9.9,9.9,0,0,1,2.16,3.53A13.68,13.68,0,0,1,241.93,598.33Zm-.93,0a13.19,13.19,0,0,0-.7-4.47,9.3,9.3,0,0,0-2-3.31,8.58,8.58,0,0,0-3-2,10.45,10.45,0,0,0-3.9-.71h-7.23v21.06h7.23a10.45,10.45,0,0,0,3.9-.71,8.45,8.45,0,0,0,3-2,9.3,9.3,0,0,0,2-3.31A13.15,13.15,0,0,0,241,598.33Z"/><path d="M258.28,607.64a3.79,3.79,0,0,1-.9.79,7.4,7.4,0,0,1-1.32.68,11.31,11.31,0,0,1-1.61.48,8.84,8.84,0,0,1-1.79.18,7.24,7.24,0,0,1-2.92-.57,6,6,0,0,1-2.22-1.64,7.45,7.45,0,0,1-1.42-2.63,11.79,11.79,0,0,1-.49-3.56,9.93,9.93,0,0,1,.47-3.16,7.07,7.07,0,0,1,1.37-2.47,6.11,6.11,0,0,1,2.19-1.62,7.21,7.21,0,0,1,2.94-.57,6.56,6.56,0,0,1,2.4.44,5.58,5.58,0,0,1,1.94,1.32,6.2,6.2,0,0,1,1.3,2.16,8.28,8.28,0,0,1,.48,2.92c0,.23-.1.34-.29.34h-12a1.67,1.67,0,0,0,0,.31v.33a11.18,11.18,0,0,0,.45,3.33,7,7,0,0,0,1.26,2.41,5.24,5.24,0,0,0,2,1.48,6.32,6.32,0,0,0,2.58.51,7.87,7.87,0,0,0,2.19-.28,8.43,8.43,0,0,0,1.56-.62,6.79,6.79,0,0,0,1-.61,1.17,1.17,0,0,1,.44-.28.26.26,0,0,1,.21.09Zm-.35-7.47a7.44,7.44,0,0,0-.41-2.54,5.66,5.66,0,0,0-1.12-1.88,4.69,4.69,0,0,0-1.69-1.16,5.43,5.43,0,0,0-2.11-.4,6.51,6.51,0,0,0-2.41.42,5.22,5.22,0,0,0-1.83,1.21,6,6,0,0,0-1.24,1.89,8.37,8.37,0,0,0-.62,2.46Z"/><path d="M274.86,607.64a4.23,4.23,0,0,1-.9.79,7.76,7.76,0,0,1-1.32.68,11.86,11.86,0,0,1-1.62.48,8.74,8.74,0,0,1-1.78.18,7.21,7.21,0,0,1-2.92-.57,6.13,6.13,0,0,1-2.23-1.64,7.44,7.44,0,0,1-1.41-2.63,11.77,11.77,0,0,1-.5-3.56,9.93,9.93,0,0,1,.48-3.16,7.21,7.21,0,0,1,1.36-2.47,6.2,6.2,0,0,1,2.19-1.62,7.29,7.29,0,0,1,3-.57,6.51,6.51,0,0,1,2.39.44,5.62,5.62,0,0,1,1.95,1.32,6.36,6.36,0,0,1,1.3,2.16,8.52,8.52,0,0,1,.47,2.92c0,.23-.1.34-.29.34H263c0,.11,0,.21,0,.31v.33a11.18,11.18,0,0,0,.45,3.33,6.82,6.82,0,0,0,1.27,2.41,5.21,5.21,0,0,0,2,1.48,6.4,6.4,0,0,0,2.59.51,7.87,7.87,0,0,0,2.19-.28,8,8,0,0,0,1.55-.62,6.43,6.43,0,0,0,1-.61,1.17,1.17,0,0,1,.44-.28.29.29,0,0,1,.21.09Zm-.36-7.47a7.2,7.2,0,0,0-.41-2.54,5.5,5.5,0,0,0-1.12-1.88,4.57,4.57,0,0,0-1.68-1.16,5.48,5.48,0,0,0-2.12-.4,6.5,6.5,0,0,0-2.4.42,5.36,5.36,0,0,0-1.84,1.21,5.94,5.94,0,0,0-1.23,1.89,8.07,8.07,0,0,0-.62,2.46Z"/><path d="M280.55,596.87a8.23,8.23,0,0,1,2.52-2.44,6.16,6.16,0,0,1,3.24-.88,5.64,5.64,0,0,1,4.62,2q1.62,2,1.62,6.06a11.39,11.39,0,0,1-.44,3.22,7.53,7.53,0,0,1-1.31,2.59,6.12,6.12,0,0,1-2.16,1.74,6.71,6.71,0,0,1-3,.63,5.74,5.74,0,0,1-5.07-2.61v8.13h-.85V593.8h.4c.21,0,.31.11.33.32Zm0,9.43a6,6,0,0,0,2.18,2.18,5.86,5.86,0,0,0,2.77.63,6.17,6.17,0,0,0,2.7-.56,5.37,5.37,0,0,0,1.92-1.58,6.94,6.94,0,0,0,1.15-2.38,11,11,0,0,0,.39-3c0-2.5-.48-4.36-1.43-5.56a4.93,4.93,0,0,0-4.13-1.81,5.6,5.6,0,0,0-3.08.91,8.54,8.54,0,0,0-2.47,2.53Z"/><path d="M307.8,609.58h-.88v-22.5h.88Z"/><path d="M314.74,596.86a8.75,8.75,0,0,1,2.63-2.42,6.45,6.45,0,0,1,3.34-.89,6.06,6.06,0,0,1,2.3.4,4.43,4.43,0,0,1,1.63,1.17,5,5,0,0,1,1,1.87,8.63,8.63,0,0,1,.33,2.49v10.1h-.85v-10.1a8.31,8.31,0,0,0-.27-2.21,4.29,4.29,0,0,0-.84-1.65,3.76,3.76,0,0,0-1.41-1,5.14,5.14,0,0,0-2-.36,6,6,0,0,0-3.2.9,9.21,9.21,0,0,0-2.6,2.51v12h-.84V593.8h.4a.29.29,0,0,1,.32.32Z"/><path d="M332.13,609.58V595.07l-2.46-.1q-.3,0-.3-.24v-.32h2.76v-1.6a7.62,7.62,0,0,1,.42-2.62,5.33,5.33,0,0,1,1.19-1.93,5,5,0,0,1,1.87-1.2,6.88,6.88,0,0,1,2.43-.41,6.1,6.1,0,0,1,1,.09,3.24,3.24,0,0,1,.89.26l-.05.39a.12.12,0,0,1-.12.09,1.3,1.3,0,0,1-.28,0l-.52-.09a6,6,0,0,0-.79,0,6.54,6.54,0,0,0-2.14.33,4.4,4.4,0,0,0-1.65,1,4.6,4.6,0,0,0-1.06,1.72,7.38,7.38,0,0,0-.36,2.44v1.58h9.08v15.17h-.84V595.05H333v14.53Z"/><path d="M348.87,586.44v23.14H348V586.44Z"/><path d="M358.71,609.83a3.19,3.19,0,0,1-2.3-.8,3.49,3.49,0,0,1-.84-2.6V595.05h-2.46q-.3,0-.3-.24v-.29l2.76-.11.24-6.08a.48.48,0,0,1,.08-.18.23.23,0,0,1,.18-.09h.35v6.35h5.22v.64h-5.22v11.34a3.89,3.89,0,0,0,.19,1.26,2.44,2.44,0,0,0,.52.86,1.83,1.83,0,0,0,.76.48,2.67,2.67,0,0,0,.95.16,2.83,2.83,0,0,0,1.09-.2,3.82,3.82,0,0,0,.81-.41,4.1,4.1,0,0,0,.55-.42.55.55,0,0,1,.3-.19.28.28,0,0,1,.18.1l.2.3a3.65,3.65,0,0,1-.63.61,4.12,4.12,0,0,1-.79.47,4.79,4.79,0,0,1-.9.31A3.72,3.72,0,0,1,358.71,609.83Z"/><path d="M366.18,598a10.55,10.55,0,0,1,.83-1.91,5.85,5.85,0,0,1,1.12-1.41,4.36,4.36,0,0,1,1.43-.87,5.33,5.33,0,0,1,1.81-.29,6.35,6.35,0,0,1,.95.07,2.48,2.48,0,0,1,.87.29l-.1.5a.22.22,0,0,1-.22.18,1.9,1.9,0,0,1-.54-.12,3.54,3.54,0,0,0-1.06-.12,4.69,4.69,0,0,0-1.77.31,3.94,3.94,0,0,0-1.37.92,6,6,0,0,0-1.07,1.52,14.52,14.52,0,0,0-.85,2.13v10.35h-.84V593.8h.38a.32.32,0,0,1,.34.35Z"/><path d="M375.65,596a9.05,9.05,0,0,1,2.48-1.85,6.57,6.57,0,0,1,3-.64,5.43,5.43,0,0,1,2.15.39,3.88,3.88,0,0,1,1.51,1.13,4.73,4.73,0,0,1,.89,1.78,9,9,0,0,1,.29,2.36v10.37h-.29a.34.34,0,0,1-.37-.34l-.16-2.33c-.44.44-.88.85-1.31,1.21a7.78,7.78,0,0,1-1.39.92,7.34,7.34,0,0,1-1.59.59,8.31,8.31,0,0,1-1.87.2,5.07,5.07,0,0,1-1.49-.22,4,4,0,0,1-1.33-.7,3.6,3.6,0,0,1-.95-1.24,4.28,4.28,0,0,1-.36-1.84,3.17,3.17,0,0,1,.6-1.88,4.72,4.72,0,0,1,1.87-1.47,12.55,12.55,0,0,1,3.2-1,30.17,30.17,0,0,1,4.6-.43v-1.87a5.86,5.86,0,0,0-1-3.68,3.63,3.63,0,0,0-3-1.31,5.52,5.52,0,0,0-2.06.34,6.42,6.42,0,0,0-1.44.77,6.72,6.72,0,0,0-.92.77c-.23.23-.41.34-.52.34a.36.36,0,0,1-.29-.17Zm9.44,5.63a20.18,20.18,0,0,0-7.14,1.2c-1.54.7-2.31,1.67-2.31,2.93a3.68,3.68,0,0,0,.29,1.52,3.17,3.17,0,0,0,.79,1.07,3,3,0,0,0,1.11.62,4.28,4.28,0,0,0,1.28.2A7.26,7.26,0,0,0,381,609a7.57,7.57,0,0,0,1.57-.63,7.92,7.92,0,0,0,1.34-1,14.45,14.45,0,0,0,1.2-1.15Z"/><path d="M403.49,609.58h-.83V595.05H393v11.34a3.89,3.89,0,0,0,.19,1.26,2.44,2.44,0,0,0,.52.86,1.83,1.83,0,0,0,.76.48,2.67,2.67,0,0,0,.95.16,2.83,2.83,0,0,0,1.09-.2,3.82,3.82,0,0,0,.81-.41,4.1,4.1,0,0,0,.55-.42.55.55,0,0,1,.3-.19.28.28,0,0,1,.18.1l.2.3a3.65,3.65,0,0,1-.63.61,4.12,4.12,0,0,1-.79.47,4.79,4.79,0,0,1-.9.31,3.72,3.72,0,0,1-.94.11,3.19,3.19,0,0,1-2.3-.8,3.49,3.49,0,0,1-.84-2.6V595.05h-2.46q-.3,0-.3-.24v-.29l2.78-.13.22-6.06a.48.48,0,0,1,.08-.18.21.21,0,0,1,.18-.09H393v6.35h10.51Zm.72-21.7a.93.93,0,0,1-.09.4,1.72,1.72,0,0,1-.25.35,1.21,1.21,0,0,1-.35.24,1.19,1.19,0,0,1-.41.08,1.16,1.16,0,0,1-.42-.08,1.13,1.13,0,0,1-.36-.24,1.36,1.36,0,0,1-.24-.35,1.1,1.1,0,0,1-.08-.4,1.11,1.11,0,0,1,1.1-1.1,1,1,0,0,1,.41.09.92.92,0,0,1,.35.24,1.3,1.3,0,0,1,.25.35A1,1,0,0,1,404.21,587.88Z"/><path d="M415.37,593.55a7.2,7.2,0,0,1,3,.58,6.11,6.11,0,0,1,2.2,1.65,7.17,7.17,0,0,1,1.36,2.57,12.36,12.36,0,0,1,0,6.68,7.25,7.25,0,0,1-1.36,2.55,6,6,0,0,1-2.2,1.62,8.1,8.1,0,0,1-6,0,6,6,0,0,1-2.2-1.62,7.25,7.25,0,0,1-1.36-2.55,12.36,12.36,0,0,1,0-6.68,7.17,7.17,0,0,1,1.36-2.57,6.11,6.11,0,0,1,2.2-1.65A7.25,7.25,0,0,1,415.37,593.55Zm0,15.55a6.38,6.38,0,0,0,2.68-.53,5.18,5.18,0,0,0,1.93-1.5,6.42,6.42,0,0,0,1.16-2.34,11,11,0,0,0,.39-3,11.24,11.24,0,0,0-.39-3.06,6.6,6.6,0,0,0-1.16-2.36,5.33,5.33,0,0,0-1.93-1.52,7.07,7.07,0,0,0-5.37,0,5.33,5.33,0,0,0-1.93,1.52,6.77,6.77,0,0,0-1.16,2.36,11.25,11.25,0,0,0-.38,3.06,11,11,0,0,0,.38,3,6.58,6.58,0,0,0,1.16,2.34,5.18,5.18,0,0,0,1.93,1.5A6.42,6.42,0,0,0,415.37,609.1Z"/><path d="M427.86,596.86a8.63,8.63,0,0,1,2.63-2.42,6.45,6.45,0,0,1,3.34-.89,6.06,6.06,0,0,1,2.3.4,4.43,4.43,0,0,1,1.63,1.17,5.11,5.11,0,0,1,1,1.87,8.63,8.63,0,0,1,.33,2.49v10.1h-.85v-10.1a8.31,8.31,0,0,0-.27-2.21,4.29,4.29,0,0,0-.84-1.65,3.76,3.76,0,0,0-1.41-1,5.14,5.14,0,0,0-2-.36,6,6,0,0,0-3.2.9,9.21,9.21,0,0,0-2.6,2.51v12H427V593.8h.41c.2,0,.3.11.32.32Z"/><polygon class="cls-2" points="98.39 601.07 98.39 579.66 91.25 579.66 91.25 601.07 86.06 601.07 94.66 612.29 103.25 601.07 98.39 601.07"/><polygon class="cls-2" points="117.19 601.07 117.19 579.66 110.06 579.66 110.06 601.07 104.87 601.07 113.46 612.29 122.06 601.07 117.19 601.07"/></g></g></svg>