<svg xmlns="http://www.w3.org/2000/svg" viewBox="0 0 984 630"><defs><style>.cls-1{fill:#fff;}.cls-15,.cls-2{fill:none;stroke-miterlimit:10;}.cls-2{stroke:#92cfe1;stroke-dasharray:5 7;}.cls-3{fill:#f2f2f2;}.cls-4{fill:#42210b;}.cls-5{fill:#006836;}.cls-6{fill:#005e2f;}.cls-7{fill:#491f0f;}.cls-8{fill:#92cfe1;}.cls-9{fill:#ede8d9;}.cls-10{fill:#8cc6d3;}.cls-11{fill:#456168;}.cls-12{fill:#3d575b;}.cls-13{fill:#007538;}.cls-14{fill:#ddaf3c;}.cls-14,.cls-15{opacity:0.79;}.cls-15{stroke:#ddaf3c;}.cls-16{fill:#e6e6e6;}</style></defs><title>Natural Ground Cover_1</title><g id="Natural_Ground_Cover" data-name="Natural Ground Cover"><rect id="Sky" class="cls-1" x="-0.66" y="2" width="986" height="377.75"/><g id="Rain"><line class="cls-2" x1="408.41" y1="87.79" x2="408.41" y2="359.12"/><line class="cls-2" x1="472.22" y1="86.96" x2="472.22" y2="371.62"/><line class="cls-2" x1="423.13" y1="86.25" x2="423.13" y2="359.12"/><line class="cls-2" x1="438.63" y1="87.14" x2="438.63" y2="373.11"/><line class="cls-2" x1="455.88" y1="87.14" x2="455.88" y2="360.12"/><line class="cls-2" x1="610.81" y1="92.02" x2="610.81" y2="363.35"/><line class="cls-2" x1="674.63" y1="91.18" x2="674.63" y2="375.85"/><line class="cls-2" x1="625.53" y1="90.48" x2="625.53" y2="363.35"/><line class="cls-2" x1="641.03" y1="91.36" x2="641.03" y2="377.33"/><line class="cls-2" x1="658.28" y1="91.36" x2="658.28" y2="364.35"/><line class="cls-2" x1="50.19" y1="75.55" x2="53.11" y2="364.37"/><line class="cls-2" x1="33.33" y1="73.55" x2="36.26" y2="362.37"/><line class="cls-2" x1="65.18" y1="75.4" x2="68.01" y2="355.12"/><line class="cls-2" x1="80.18" y1="75.25" x2="83.08" y2="361.2"/><line class="cls-2" x1="96.35" y1="73.97" x2="99.3" y2="364.37"/><line class="cls-2" x1="114.6" y1="75.33" x2="115.63" y2="359.12"/><line class="cls-2" x1="132.83" y1="75.14" x2="135.68" y2="356"/><line class="cls-2" x1="152.3" y1="75.14" x2="153" y2="363.34"/><line class="cls-2" x1="813.22" y1="101.83" x2="815.83" y2="359.12"/><line class="cls-2" x1="828.21" y1="101.68" x2="830.85" y2="362.34"/><line class="cls-2" x1="843.22" y1="101.53" x2="846.12" y2="387.49"/><line class="cls-2" x1="859.38" y1="100.26" x2="861.96" y2="354.68"/><line class="cls-2" x1="877.64" y1="101.61" x2="878.72" y2="355.33"/><line class="cls-2" x1="895.87" y1="101.43" x2="898.49" y2="360.12"/><line class="cls-2" x1="913.47" y1="101.43" x2="916.13" y2="364.37"/><line class="cls-2" x1="932.08" y1="100.18" x2="934.67" y2="355.12"/></g><g id="Evapotranspiration"><polygon class="cls-3" points="957.84 191.03 931.34 225.66 947.34 225.66 947.34 363.34 969.34 363.34 969.34 225.66 984.34 225.66 957.84 191.03"/><polygon class="cls-3" points="771.64 191.03 745.14 225.66 761.14 225.66 761.14 363.34 783.14 363.34 783.14 225.66 798.14 225.66 771.64 191.03"/><polygon class="cls-3" points="585.44 191.03 558.94 225.66 574.94 225.66 574.94 363.34 596.94 363.34 596.94 225.66 611.94 225.66 585.44 191.03"/><polygon class="cls-3" points="399.24 191.03 372.74 225.66 388.74 225.66 388.74 363.34 410.74 363.34 410.74 225.66 425.74 225.66 399.24 191.03"/><polygon class="cls-3" points="213.04 191.03 186.54 225.66 202.54 225.66 202.54 363.34 224.54 363.34 224.54 225.66 239.54 225.66 213.04 191.03"/><polygon class="cls-3" points="26.84 191.03 0.34 225.66 16.34 225.66 16.34 363.34 38.34 363.34 38.34 225.66 53.34 225.66 26.84 191.03"/><rect class="cls-3" x="847" y="173" width="22.34" height="190.34"/><polygon class="cls-3" points="857.84 138.03 831.34 172.66 884.34 172.66 857.84 138.03"/><rect class="cls-3" x="652" y="172" width="22.34" height="190.34"/><polygon class="cls-3" points="662.84 137.03 636.34 171.66 689.34 171.66 662.84 137.03"/><rect class="cls-3" x="487" y="173" width="22.34" height="190.34"/><polygon class="cls-3" points="497.84 138.03 471.34 172.66 524.34 172.66 497.84 138.03"/><rect class="cls-3" x="94" y="172" width="22.34" height="190.34"/><polygon class="cls-3" points="104.84 137.03 78.34 171.66 131.34 171.66 104.84 137.03"/></g><g id="Trees"><polygon class="cls-4" points="286.26 254.43 286.75 235.37 324.31 218.03 340.48 191.51 350.59 195.16 334.16 223.61 286.26 254.43"/><polygon class="cls-4" points="284.9 171.82 284.57 158.41 275.19 156.33 264.34 138.53 257.55 140.98 268.58 160.07 284.9 171.82"/><polygon class="cls-4" points="299.27 369 273.8 369 277.65 67.78 292.53 67.78 299.27 369"/><polygon class="cls-4" points="289.15 183.16 289.64 164.1 327.2 146.76 343.37 120.24 353.48 123.89 337.05 152.34 289.15 183.16"/><polygon class="cls-4" points="279.31 200.49 278.83 181.43 225.85 159.28 210.65 134.69 200.54 138.34 216.97 166.79 279.31 200.49"/><path class="cls-5" d="M252.28,126.65c0,19-21.13,25.39-47.2,25.39s-47.2-6.38-47.2-25.39S179,83.19,205.08,83.19,252.28,107.63,252.28,126.65Z"/><path class="cls-6" d="M205.08,83.19c26.07,0,47.2,24.44,47.2,43.46S231.15,152,205.08,152Z"/><path class="cls-5" d="M382.87,197.88c0,13.92-17.26,18.67-44.67,18.67s-43.44-4.75-43.44-18.67,16-36.4,43.44-36.4S382.87,184,382.87,197.88Z"/><path class="cls-6" d="M338.2,161.48c27.41,0,44.67,22.49,44.67,36.4s-17.26,18.67-44.67,18.67Z"/><path class="cls-5" d="M373.43,127.63c0,9.83-13.73,15-30.68,15s-30.68-5.14-30.68-15,13.74-29.08,30.68-29.08S373.43,117.81,373.43,127.63Z"/><path class="cls-6" d="M342.75,98.55c16.95,0,30.68,19.26,30.68,29.08s-13.73,15-30.68,15Z"/><path class="cls-5" d="M288.68,143.36c0,8.26-9.92,11.1-22.16,11.1s-22.15-2.84-22.15-11.1,9.92-21.69,22.15-21.69S288.68,135.11,288.68,143.36Z"/><path class="cls-6" d="M266.52,121.67c12.24,0,22.16,13.44,22.16,21.69s-9.92,11.1-22.16,11.1Z"/><path class="cls-5" d="M338.82,59.47c0,18.37-23.6,23.34-52.71,23.34s-52.71-5-52.71-23.34S257,13,286.11,13,338.82,41.11,338.82,59.47Z"/><path class="cls-6" d="M286.11,13c29.11,0,52.71,28.11,52.71,46.47s-23.6,23.34-52.71,23.34Z"/><polygon class="cls-4" points="179.32 369 154.2 369 159.69 193.44 173.83 193.44 179.32 369"/><path class="cls-5" d="M214.11,258.66c0,37.75-24.42,53-46.57,53S118,297,118,259.21s27.39-91.95,49.54-91.95S214.11,220.92,214.11,258.66Z"/><path class="cls-6" d="M167.54,167.26c22.15,0,46.57,53.66,46.57,91.4s-24.42,53-46.57,53Z"/><polygon class="cls-4" points="609.96 367.4 589.25 367.4 593.78 222.71 605.43 222.71 609.96 367.4"/><path class="cls-5" d="M638.62,276.46c0,31.11-20.12,43.67-38.37,43.67s-40.84-12.1-40.84-43.22,22.58-75.79,40.84-75.79S638.62,245.35,638.62,276.46Z"/><path class="cls-6" d="M600.25,201.12c18.25,0,38.37,44.23,38.37,75.34s-20.12,43.67-38.37,43.67Z"/><polygon class="cls-4" points="771.64 369.5 736.56 369.5 744.23 151.57 763.97 151.57 771.64 369.5"/><polygon class="cls-7" points="755.1 151.57 764.97 151.57 772.64 369.5 755.1 369.5 755.1 151.57"/><path class="cls-5" d="M690,183c0-52.71,34.09-63,65-63s69.19,9.5,69.19,62.22S786,293.64,755,293.64,690,235.7,690,183Z"/><path class="cls-6" d="M757.09,120c20.07.42,44.12,10.64,44.12,62.2s-24,108.78-44.1,111.32c30.54-2.53,67.1-59.78,67.1-111.32S787.63,120.44,757.09,120Z"/><polygon class="cls-4" points="451.84 369 425.05 369 428.78 234.04 448.11 234.04 451.84 369"/><polygon class="cls-5" points="439.1 126.91 499.03 308.53 379.17 308.53 439.1 126.91"/><polygon class="cls-6" points="439.1 126.91 499.03 308.53 439.1 308.53 439.1 126.91"/></g><g id="Runoff"><path class="cls-8" d="M982,373v39H0V373l-.5-25.5c15.37,0,15.37,8,30.75,8s15.37-8,30.75-8,15.37,8,30.75,8,15.37-8,30.75-8,15.37,8,30.75,8,15.37-8,30.74-8,15.37,8,30.75,8,15.37-8,30.74-8,15.37,8,30.75,8,15.37-8,30.74-8,15.38,8,30.75,8,15.38-8,30.75-8,15.37,8,30.75,8,15.37-8,30.75-8,15.37,8,30.74,8,15.38-8,30.75-8,15.38,8,30.75,8,15.38-8,30.75-8,15.38,8,30.75,8,15.38-8,30.75-8,15.38,8,30.75,8,15.38-8,30.76-8,15.37,8,30.75,8,15.37-8,30.74-8,15.38,8,30.75,8,15.38-8,30.75-8,15.38,8,30.76,8,15.37-8,30.75-8,15.38,8,30.76,8,15.37-8,30.75-8,15.38,8,30.76,8,15.38-8,30.76-8Z"/></g><rect id="Underground" class="cls-9" x="-1" y="363" width="984" height="267"/><g id="Shallow_Infiltration" data-name="Shallow Infiltration"><polygon class="cls-8" points="969 445.37 969 379.37 946.99 379.37 946.99 445.37 931 445.37 957.5 480 983.99 445.37 969 445.37"/><polygon class="cls-10" points="957.84 480.28 984.34 445.65 969.34 445.65 969.34 368.02 958.34 368.02 957.84 480.28"/><polygon class="cls-8" points="780 445.37 780 379.37 757.99 379.37 757.99 445.37 742 445.37 768.5 480 794.99 445.37 780 445.37"/><polygon class="cls-10" points="768.5 480.28 794.99 445.65 779.99 445.65 779.99 368.02 769 368.02 768.5 480.28"/><polygon class="cls-8" points="599 445.37 599 379.37 576.99 379.37 576.99 445.37 561 445.37 587.5 480 613.99 445.37 599 445.37"/><polygon class="cls-10" points="587 480.28 613.5 445.65 598.5 445.65 598.5 368.02 587.5 368.02 587 480.28"/><polygon class="cls-8" points="414 445.37 414 379.37 391.99 379.37 391.99 445.37 376 445.37 402.5 480 428.99 445.37 414 445.37"/><polygon class="cls-10" points="402.5 480.28 428.99 445.65 413.99 445.65 413.99 368.02 403 368.02 402.5 480.28"/><polygon class="cls-8" points="221 445.37 221 379.37 198.99 379.37 198.99 445.37 183 445.37 209.5 480 235.99 445.37 221 445.37"/><polygon class="cls-10" points="209.5 480.28 235.99 445.65 220.99 445.65 220.99 368.02 210 368.02 209.5 480.28"/><polygon class="cls-8" points="38 445.37 38 379.37 15.99 379.37 15.99 445.37 0 445.37 26.5 480 52.99 445.37 38 445.37"/><polygon class="cls-10" points="26.5 479.34 52.99 444.71 37.99 444.71 37.99 367.08 27 367.08 26.5 479.34"/></g><g id="Deep_Infiltration" data-name="Deep Infiltration"><polygon class="cls-11" points="868.99 562 868.99 378.37 847 378.37 847 562 831 562 857.5 596.63 883.99 562 868.99 562"/><polygon class="cls-12" points="858.1 596.63 884.59 562 869.59 562 869.59 378.37 858.6 378.37 858.1 596.63"/><polygon class="cls-11" points="674.99 562 674.99 378.37 653 378.37 653 562 637 562 663.5 596.63 689.99 562 674.99 562"/><polygon class="cls-12" points="663.5 596.63 689.99 562 674.99 562 674.99 378.37 664 378.37 663.5 596.63"/><polygon class="cls-11" points="509.99 563 509.99 379.37 488 379.37 488 563 472 563 498.5 597.63 524.99 563 509.99 563"/><polygon class="cls-12" points="498.5 597.63 524.99 563 509.99 563 509.99 379.37 499 379.37 498.5 597.63"/><polygon class="cls-11" points="299.99 561 299.99 379.37 278 379.37 278 561 262 561 288.5 595.63 314.99 561 299.99 561"/><polygon class="cls-12" points="288.25 595.63 314.75 561 299.75 561 299.75 377.37 288.75 377.37 288.25 595.63"/><polygon class="cls-11" points="115.99 562 115.99 376.37 94 376.37 94 562 78 562 104.5 596.63 130.99 562 115.99 562"/><polygon class="cls-12" points="104.5 596.63 130.99 562 115.99 562 115.99 378.37 105 378.37 104.5 596.63"/></g><g id="Horizon"><rect class="cls-13" x="-10" y="363" width="1005.96" height="8.15"/><polygon class="cls-4" points="998 379.31 -7.96 379.31 -10 371.15 995.96 371.15 998 379.31"/></g><g id="Sun"><circle class="cls-14" cx="545.3" cy="71.11" r="21"/><line class="cls-15" x1="544.3" y1="43.11" x2="544.3" y2="34.11"/><line class="cls-15" x1="532.75" y1="45.78" x2="529.09" y2="37.55"/><line class="cls-15" x1="523.29" y1="52.91" x2="516.6" y2="46.89"/><line class="cls-15" x1="517.54" y1="63.28" x2="508.98" y2="60.5"/><line class="cls-15" x1="516.51" y1="75.08" x2="507.56" y2="76.02"/><line class="cls-15" x1="520.37" y1="86.29" x2="512.57" y2="90.79"/><line class="cls-15" x1="528.45" y1="94.96" x2="523.16" y2="102.24"/><line class="cls-15" x1="539.36" y1="99.59" x2="537.49" y2="108.39"/><line class="cls-15" x1="551.21" y1="99.38" x2="553.09" y2="108.18"/><line class="cls-15" x1="561.96" y1="94.37" x2="567.25" y2="101.65"/><line class="cls-15" x1="569.73" y1="85.42" x2="577.53" y2="89.92"/><line class="cls-15" x1="573.2" y1="74.09" x2="582.15" y2="75.03"/><line class="cls-15" x1="571.75" y1="62.33" x2="580.31" y2="59.54"/><line class="cls-15" x1="565.64" y1="52.17" x2="572.33" y2="46.14"/><line class="cls-15" x1="555.94" y1="45.37" x2="559.6" y2="37.15"/></g><g id="Clouds"><path class="cls-16" d="M143.49,45a48,48,0,0,0-7.41.57C131.4,36,115.89,28.93,97.48,28.93c-20.46,0-37.34,8.72-39.76,20C46.74,49.35,38,55.39,38,62.77c0,7.68,9.4,13.9,21,13.9h.32v.13h79.59c1.48.14,3,.21,4.56.21,15.53,0,28.12-7.15,28.12-16S159,45,143.49,45Z"/><path class="cls-16" d="M473.44,66.65c-.45-6.93-8-12.43-17.16-12.43a22,22,0,0,0-6.69,1c-4.85-5.12-12.7-8.45-21.55-8.45-11.13,0-20.67,5.26-24.68,12.72a15.11,15.11,0,0,0-2.35-.19,14.49,14.49,0,1,0,0,29,14.73,14.73,0,0,0,2.91-.29h63a16.87,16.87,0,0,0,3.13.29c7.65,0,13.85-4.92,13.85-11C483.94,72.15,479.47,67.84,473.44,66.65Z"/><path class="cls-3" d="M102.24,57.17c-.41-6.43-7.39-11.55-15.94-11.55a20.08,20.08,0,0,0-6.2,1c-4.51-4.76-11.8-7.85-20-7.85-10.34,0-19.19,4.88-22.92,11.81A14.27,14.27,0,0,0,35,50.36,13.46,13.46,0,1,0,37.68,77H96.23a16.14,16.14,0,0,0,2.91.27c7.1,0,12.86-4.57,12.86-10.21C112,62.28,107.84,58.27,102.24,57.17Z"/><path class="cls-16" d="M939,79.93C939,71.42,932.1,64,921.85,60c-4.43-14.32-21.26-25-41.35-25-18.71,0-34.58,9.25-40.26,22.09-.9-.06-1.82-.09-2.74-.09-14.32,0-26.45,6.76-30.53,16.09a19.2,19.2,0,0,0-3-.24c-9.39,0-17,6.75-17,15.07s7.34,14.82,16.5,15.06v0H905C923.82,102.81,939,92.56,939,79.93Z"/><path class="cls-3" d="M950,89.14c0-5.11-4.14-9.57-10.3-12-2.66-8.61-12.77-15-24.84-15-11.23,0-20.77,5.55-24.18,13.27-.54,0-1.09-.06-1.64-.06-8.61,0-15.89,4.06-18.34,9.67a10.43,10.43,0,0,0-1.78-.15c-5.64,0-10.21,4-10.21,9s4.41,8.9,9.91,9h61C940.88,102.89,950,96.73,950,89.14Z"/><path class="cls-3" d="M474.19,71a25.68,25.68,0,0,0-4,.31c-2.51-5.17-10.84-9-20.73-9-11,0-20.05,4.68-21.35,10.73-5.9.23-10.57,3.48-10.57,7.44,0,4.13,5,7.47,11.27,7.47H429V88h42.74c.8.07,1.62.11,2.45.11,8.35,0,15.11-3.84,15.11-8.58S482.54,71,474.19,71Z"/><path class="cls-16" d="M609.46,70.35c.45-6.92,8-12.43,17.16-12.43a21.84,21.84,0,0,1,6.68,1c4.86-5.12,12.71-8.45,21.56-8.45,11.13,0,20.66,5.25,24.68,12.72a15.11,15.11,0,0,1,2.35-.19,14.49,14.49,0,1,1,0,29,14.73,14.73,0,0,1-2.91-.29h-63a17.86,17.86,0,0,1-3.13.29C605.16,92,599,87.08,599,81,599,75.86,603.43,71.54,609.46,70.35Z"/><path class="cls-3" d="M608.7,74.66a27,27,0,0,1,4,.3C615.2,69.8,623.53,66,633.42,66c11,0,20.05,4.68,21.35,10.72,5.9.24,10.57,3.48,10.57,7.45s-5.05,7.46-11.27,7.46h-.17v.07H611.16c-.8.07-1.62.11-2.46.11-8.34,0-15.1-3.84-15.1-8.58S600.36,74.66,608.7,74.66Z"/></g></g></svg>