<svg xmlns="http://www.w3.org/2000/svg" viewBox="0 0 107.08 107"><defs><style>.cls-1{fill:none;}.cls-2{fill:#006836;}</style></defs><title>raingardens1</title><g id="riverbanks"><circle class="cls-1" cx="53.03" cy="52.8" r="47.75"/><path class="cls-2" d="M31.15,24.15S32.89,38,32.4,41.81c-1,7.77-3.37,16-3.5,20.42s.15,8.26,0,12.73c-.1,2.23.86,3.8-1.52,3.68S25.87,77.8,25.63,75a115.09,115.09,0,0,1,0-12.86c.28-4.54,4.21-18.82,4.85-23.05C30.94,36.32,31.15,24.15,31.15,24.15Z"/><path class="cls-2" d="M37.66,29.41s1.74,12.47,1.25,16c-1,7-3.37,14.48-3.49,18.44s.15,7.47,0,11.51c-.09,2,.86,3.43-1.52,3.32s-1.48-.76-1.71-3.32a90.19,90.19,0,0,1,0-11.62c.27-4.1,4.2-17,4.84-20.82C37.45,40.4,37.66,29.41,37.66,29.41Z"/><path class="cls-2" d="M43.92,27.15s1.75,13.05,1.26,16.69c-1,7.34-3.37,15.15-3.5,19.29s.15,7.81,0,12c-.09,2.1.87,3.59-1.51,3.47s-1.48-.79-1.72-3.47a102.75,102.75,0,0,1,0-12.15c.27-4.3,4.2-17.79,4.85-21.78C43.71,38.65,43.92,27.15,43.92,27.15Z"/><path class="cls-2" d="M50.44,24.15S52.18,38,51.69,41.81c-1,7.77-3.37,16-3.49,20.42s.14,8.26,0,12.73c-.1,2.23.86,3.8-1.52,3.68S45.16,77.8,44.93,75A112.41,112.41,0,0,1,45,62.1c.28-4.54,4.21-18.82,4.85-23.05C50.23,36.32,50.44,24.15,50.44,24.15Z"/><path class="cls-2" d="M56.83,29.41s1.74,12.47,1.25,16c-1,7-3.37,14.48-3.5,18.44s.15,7.47,0,11.51c-.1,2,.86,3.43-1.52,3.32s-1.48-.76-1.72-3.32a94,94,0,0,1,0-11.62c.28-4.1,4.21-17,4.85-20.82C56.62,40.4,56.83,29.41,56.83,29.41Z"/><path class="cls-2" d="M63.22,27.15S65,40.2,64.47,43.84C63.48,51.18,61.1,59,61,63.13s.15,7.81,0,12c-.09,2.1.87,3.59-1.51,3.47s-1.48-.79-1.72-3.47a102.75,102.75,0,0,1,0-12.15c.27-4.3,4.2-17.79,4.85-21.78C63,38.65,63.22,27.15,63.22,27.15Z"/><path class="cls-2" d="M70.23,24.15S72,38,71.48,41.81c-1,7.77-3.37,16-3.49,20.42s.15,8.26,0,12.73c-.09,2.23.86,3.8-1.52,3.68S65,77.8,64.72,75a110.44,110.44,0,0,1,0-12.86C65,57.56,69,43.28,69.61,39.05,70,36.32,70.23,24.15,70.23,24.15Z"/><path class="cls-2" d="M76.75,29.41s1.74,12.47,1.25,16c-1,7-3.37,14.48-3.5,18.44s.15,7.47,0,11.51c-.09,2,.87,3.43-1.51,3.32s-1.48-.76-1.72-3.32a94,94,0,0,1,0-11.62c.27-4.1,4.2-17,4.85-20.82C76.54,40.4,76.75,29.41,76.75,29.41Z"/><path class="cls-2" d="M82.88,27.15s1.75,13.05,1.26,16.69c-1,7.34-3.37,15.15-3.5,19.29s.15,7.81,0,12c-.09,2.1.87,3.59-1.51,3.47s-1.48-.79-1.72-3.47a102.75,102.75,0,0,1,0-12.15c.27-4.3,4.2-17.79,4.85-21.78C82.67,38.65,82.88,27.15,82.88,27.15Z"/><path class="cls-2" d="M24.63,26.78s1.75,13.14,1.26,16.81C24.9,51,22.52,58.85,22.39,63s.15,7.87,0,12.12c-.09,2.12.87,3.62-1.51,3.5s-1.49-.8-1.72-3.5a104.27,104.27,0,0,1,0-12.24C19.43,58.58,23.36,45,24,41,24.42,38.36,24.63,26.78,24.63,26.78Z"/></g></svg>