<svg xmlns="http://www.w3.org/2000/svg" viewBox="0 0 107.13 107"><defs><style>.cls-1,.cls-2,.cls-3{fill:none;}.cls-2{stroke:#000;stroke-width:1.51px;}.cls-2,.cls-3{stroke-linecap:round;stroke-linejoin:round;}.cls-3{stroke:#92cfe1;stroke-width:2.26px;}</style></defs><title>riverbanks1</title><g id="riverbanks"><circle class="cls-1" cx="53.57" cy="54.06" r="47.75"/><path class="cls-2" d="M92.69,72.81c-4.9,0-4.9-3.14-9.8-3.14s-4.9,3.14-9.8,3.14-4.89-3.14-9.79-3.14-4.9,3.14-9.8,3.14-4.91-3.14-9.81-3.14-4.9,3.14-9.8,3.14-4.9-3.14-9.81-3.14-4.9,3.14-9.81,3.14"/><path class="cls-2" d="M92.77,63.36c-4.9,0-4.9-3.13-9.8-3.13s-4.9,3.13-9.8,3.13-4.9-3.13-9.8-3.13-4.9,3.13-9.8,3.13-4.9-3.13-9.8-3.13-4.9,3.13-9.81,3.13-4.9-3.13-9.8-3.13-4.91,3.13-9.81,3.13"/><path class="cls-3" d="M92.55,65.48c-4.9,0-4.9-3.14-9.8-3.14s-4.9,3.14-9.8,3.14-4.9-3.14-9.8-3.14-4.9,3.14-9.8,3.14-4.9-3.14-9.8-3.14-4.9,3.14-9.8,3.14-4.91-3.14-9.81-3.14S19,65.48,14.13,65.48"/><path class="cls-3" d="M92.69,75c-4.9,0-4.9-3.13-9.8-3.13S78,75,73.09,75s-4.89-3.13-9.79-3.13S58.4,75,53.5,75s-4.91-3.13-9.81-3.13S38.79,75,33.89,75s-4.9-3.13-9.81-3.13S19.18,75,14.27,75"/><path class="cls-2" d="M91.87,45.94c-4.9,0-4.9-3.14-9.8-3.14s-4.9,3.14-9.8,3.14-4.9-3.14-9.8-3.14-4.9,3.14-9.8,3.14-4.9-3.14-9.8-3.14-4.9,3.14-9.81,3.14-4.9-3.14-9.8-3.14-4.91,3.14-9.81,3.14"/><path class="cls-2" d="M91.94,36.49c-4.9,0-4.9-3.13-9.8-3.13s-4.9,3.13-9.8,3.13-4.89-3.13-9.79-3.13-4.9,3.13-9.8,3.13-4.91-3.13-9.81-3.13-4.9,3.13-9.8,3.13-4.9-3.13-9.81-3.13-4.9,3.13-9.81,3.13"/><path class="cls-3" d="M91.72,38.61c-4.9,0-4.9-3.14-9.8-3.14s-4.9,3.14-9.79,3.14-4.9-3.14-9.8-3.14-4.9,3.14-9.8,3.14-4.91-3.14-9.81-3.14-4.9,3.14-9.8,3.14-4.9-3.14-9.81-3.14-4.9,3.14-9.81,3.14"/><path class="cls-3" d="M91.87,48.11C87,48.11,87,45,82.07,45s-4.9,3.14-9.8,3.14S67.37,45,62.47,45s-4.9,3.14-9.8,3.14S47.77,45,42.87,45s-4.9,3.14-9.81,3.14S28.16,45,23.26,45s-4.91,3.14-9.81,3.14"/><path class="cls-2" d="M91.87,54.69c-4.9,0-4.9-3.14-9.8-3.14s-4.9,3.14-9.8,3.14-4.9-3.14-9.8-3.14-4.9,3.14-9.8,3.14-4.9-3.14-9.8-3.14-4.9,3.14-9.81,3.14-4.9-3.14-9.8-3.14-4.91,3.14-9.81,3.14"/><path class="cls-3" d="M91.87,56.71c-4.9,0-4.9-3.14-9.8-3.14s-4.9,3.14-9.8,3.14-4.9-3.14-9.8-3.14-4.9,3.14-9.8,3.14-4.9-3.14-9.8-3.14-4.9,3.14-9.81,3.14-4.9-3.14-9.8-3.14-4.91,3.14-9.81,3.14"/></g></svg>